<?xml version="1.0" standalone="no"?>
<!DOCTYPE svg PUBLIC "-//W3C//DTD SVG 20010904//EN"
 "http://www.w3.org/TR/2001/REC-SVG-20010904/DTD/svg10.dtd">
<svg version="1.0" xmlns="http://www.w3.org/2000/svg"
 width="72.000000pt" height="72.000000pt" viewBox="0 0 72.000000 72.000000"
 preserveAspectRatio="xMidYMid meet">

<g transform="translate(0.000000,72.000000) scale(0.100000,-0.100000)"
fill="#000000" stroke="none">
<path d="M194 585 c-16 -24 -16 -28 -1 -42 34 -34 63 10 32 50 -13 18 -14 17
-31 -8z"/>
<path d="M350 545 c0 -12 22 -15 113 -17 l112 -3 3 -81 3 -82 -36 -22 -35 -22
-44 26 c-56 32 -83 33 -126 1 -34 -25 -36 -25 -82 8 -26 19 -54 20 -100 2 -16
-6 -18 1 -18 79 0 51 -4 86 -10 86 -6 0 -10 -72 -10 -195 0 -182 1 -195 19
-205 12 -6 102 -10 225 -10 173 0 207 2 220 16 24 23 24 395 0 418 -22 23
-234 24 -234 1z m100 -220 c39 -29 60 -31 101 -10 l30 16 -3 -93 -3 -93 -215
0 -215 0 -3 85 c-2 71 0 87 14 97 26 19 78 16 104 -7 28 -24 63 -26 81 -4 13
16 44 32 65 33 5 1 25 -10 44 -24z"/>
<path d="M268 505 c-10 -13 -18 -30 -18 -38 0 -22 27 -39 50 -32 25 8 27 45 3
74 l-18 20 -17 -24z"/>
</g>
</svg>
