<svg id="Layer_1" data-name="Layer 1" xmlns="http://www.w3.org/2000/svg" viewBox="0 0 379.73 379.74"><defs><style>.cls-1{fill:#4b2c6d;}.cls-2{fill:#fff;}</style></defs><path class="cls-1" d="M329.68,60.26H170.94a110.61,110.61,0,0,0-110.5,110.5V329.49A110.61,110.61,0,0,0,170.94,440H329.67a110.6,110.6,0,0,0,110.5-110.5V170.76A110.59,110.59,0,0,0,329.68,60.26Z" transform="translate(-60.44 -60.26)"/><path class="cls-2" d="M131.72,253.72c0-14.23-.47-26.36-.93-36.39h29.86l1.64,15.4h.7c4.89-7.24,14.93-18,34.52-18,14.7,0,26.37,7.47,31.27,19.37h.47a51,51,0,0,1,14.69-13.77,41.2,41.2,0,0,1,21.7-5.6c21.93,0,38.5,15.4,38.5,49.46v67.2H269.61V269.36c0-16.57-5.37-26.13-16.8-26.13-8.17,0-14,5.6-16.33,12.36a29.49,29.49,0,0,0-1.4,9.1v66.73H200.55V267.49c0-14.46-5.13-24.26-16.33-24.26-9.1,0-14.47,7-16.57,12.83a23.42,23.42,0,0,0-1.4,8.86v66.5H131.72Z" transform="translate(-60.44 -60.26)"/><path class="cls-2" d="M369,185.6c0,9.8-7.47,17.73-19.13,17.73-11.2,0-18.67-7.93-18.43-17.73-.24-10.27,7.23-18,18.66-18S368.77,175.33,369,185.6ZM332.37,331.42V217.33h35.46V331.42Z" transform="translate(-60.44 -60.26)"/></svg>