<?xml version="1.0" encoding="UTF-8" standalone="no"?>
<svg
   xmlns:dc="http://purl.org/dc/elements/1.1/"
   xmlns:cc="http://creativecommons.org/ns#"
   xmlns:rdf="http://www.w3.org/1999/02/22-rdf-syntax-ns#"
   xmlns:svg="http://www.w3.org/2000/svg"
   xmlns="http://www.w3.org/2000/svg"
   xmlns:sodipodi="http://sodipodi.sourceforge.net/DTD/sodipodi-0.dtd"
   xmlns:inkscape="http://www.inkscape.org/namespaces/inkscape"
   version="1.1"
   x="0px"
   y="0px"
   viewBox="0 0 100 100"
   xml:space="preserve"
   id="svg70"
   sodipodi:docname="noun_Artificial Horizon_95877.svg"
   width="100"
   height="100"
   inkscape:version="1.0.2 (e86c870, 2021-01-15)"><metadata
     id="metadata76"><rdf:RDF><cc:Work
         rdf:about=""><dc:format>image/svg+xml</dc:format><dc:type
           rdf:resource="http://purl.org/dc/dcmitype/StillImage" /><dc:title></dc:title></cc:Work></rdf:RDF></metadata><defs
     id="defs74" /><sodipodi:namedview
     pagecolor="#ffffff"
     bordercolor="#666666"
     borderopacity="1"
     objecttolerance="10"
     gridtolerance="10"
     guidetolerance="10"
     inkscape:pageopacity="0"
     inkscape:pageshadow="2"
     inkscape:window-width="1848"
     inkscape:window-height="1016"
     id="namedview72"
     showgrid="false"
     inkscape:zoom="6.6"
     inkscape:cx="50"
     inkscape:cy="53.405847"
     inkscape:window-x="72"
     inkscape:window-y="27"
     inkscape:window-maximized="1"
     inkscape:current-layer="svg70" /><g
     id="g64"
     transform="translate(0.97898539,-0.255631)"><path
       d="M 50,5 C 25.147,5 5,25.147 5,50 5,74.853 25.147,95 50,95 74.853,95 95,74.853 95,50 95,25.147 74.853,5 50,5 Z m 0.096,87.404 c -23.472,0 -42.5,-19.028 -42.5,-42.5 0,-23.472 19.028,-42.5 42.5,-42.5 23.472,0 42.5,19.028 42.5,42.5 0,23.472 -19.028,42.5 -42.5,42.5 z M 53.771,53 h 0.117 c -0.984,0.565 -2.121,0.933 -3.379,0.933 -1.258,0 -2.395,-0.367 -3.379,-0.933 h 0.117 c 0.958,0.527 2.054,0.865 3.262,0.865 1.208,0 2.304,-0.338 3.262,-0.865 z m 36.194,0 C 88.383,73.643 71.144,89.904 50.096,89.904 29.048,89.904 11.809,73.643 10.227,53 H 42.64 c 1.945,2 4.873,3.865 7.869,3.865 2.996,0 5.923,-1.865 7.869,-3.865 z M 44.219,50 c 0.643,1.163 1.697,2.268 3.028,3 h 6.525 c 1.33,-0.732 2.385,-1.837 3.028,-3 H 80 V 48.652 46.618 46 H 56.602 54.557 c -0.777,0 -0.965,0.505 -1.045,0.802 -0.077,0.285 -0.256,0.856 -0.444,1.14 -0.527,0.798 -1.46,1.207 -2.56,1.207 -1.143,0 -2.052,-0.447 -2.56,-1.215 C 47.763,47.653 47.576,47.106 47.506,46.833 47.429,46.53 47.246,46 46.46,46 H 44.415 21.5 19 V 46.617 48.651 50 h 2.5 z m 6.813,0.016 c 0.171,-0.019 0.339,-0.025 0.503,-0.063 0.492,-0.113 0.947,-0.298 1.348,-0.568 0.401,-0.27 0.747,-0.611 1.02,-1.024 0.194,-0.294 0.348,-0.741 0.459,-1.117 0.11,-0.376 0.177,-0.677 0.196,-0.677 -0.003,0 -0.009,0.02 -0.013,0.032 0.005,-0.012 0.011,-0.03 0.013,-0.03 -0.019,0 -0.085,0.304 -0.196,0.682 -0.11,0.378 -0.264,0.829 -0.459,1.123 -0.273,0.413 -0.619,0.758 -1.02,1.027 -0.401,0.269 -0.856,0.464 -1.348,0.576 -0.163,0.036 -0.332,0.02 -0.503,0.039 C 50.861,50.035 50.686,50 50.509,50 c 0.002,0 0.005,0 0.007,0 -0.002,0 -0.005,0 -0.007,0 0.177,0 0.352,0.035 0.523,0.016 z M 47.246,53 h 6.525 c -0.958,0.527 -2.054,0.865 -3.262,0.865 -1.209,0 -2.305,-0.338 -3.263,-0.865 z"
       id="path62" /></g></svg>
