<?xml version="1.0" encoding="UTF-8"?>
<svg xmlns="http://www.w3.org/2000/svg" xmlns:xlink="http://www.w3.org/1999/xlink" width="72pt" height="72pt" viewBox="0 0 72 72" version="1.1">
<g id="surface1">
<path style=" stroke:none;fill-rule:nonzero;fill:rgb(0%,0%,0%);fill-opacity:1;" d="M 71.28125 36 C 71.28125 16.515625 55.484375 0.722656 36 0.722656 C 16.515625 0.722656 0.722656 16.515625 0.722656 36 C 0.722656 55.484375 16.515625 71.28125 36 71.28125 C 55.484375 71.28125 71.28125 55.484375 71.28125 36 Z M 3.925781 36 C 3.925781 18.289062 18.289062 3.925781 36 3.925781 C 53.710938 3.925781 68.074219 18.289062 68.074219 36 C 68.074219 53.710938 53.71875 68.074219 36 68.074219 C 18.289062 68.074219 3.925781 53.710938 3.925781 36 Z M 3.925781 36 "/>
<path style=" stroke:none;fill-rule:nonzero;fill:rgb(0%,0%,0%);fill-opacity:1;" d="M 41.671875 30.328125 L 18.992188 18.992188 L 30.335938 41.664062 L 53.007812 53.007812 Z M 32.902344 39.21875 L 24.199219 24.324219 L 39.132812 32.890625 Z M 32.902344 39.21875 "/>
</g>
</svg>
