<svg id="Layer_1" data-name="Layer 1" xmlns="http://www.w3.org/2000/svg" viewBox="0 0 379.25 379.25"><defs><style>.cls-1{fill:#4b2c6d;}.cls-2{fill:#4e005b;}.cls-3,.cls-5{fill:#fff;}.cls-3{fill-opacity:0.94;}.cls-4{fill:#f9f9f9;}</style></defs><g id="g16"><g id="g8"><polygon id="polygon4" class="cls-1" points="186.99 11.16 186.99 282.81 5.89 373.37 186.99 11.16"/><path id="path6" class="cls-2" d="M245.11,82.73V341.61L72.52,427.9,245.11,82.73m5.26-22.31L60.75,439.68l189.62-94.82V60.42Z" transform="translate(-60.75 -60.42)"/></g><g id="g14"><polygon id="polygon10" class="cls-1" points="192.26 282.81 192.26 11.16 373.37 373.37 192.26 282.81"/><path id="path12" class="cls-2" d="M255.64,82.73,428.22,427.9,255.64,341.61V82.73m-5.27-22.31V344.86L440,439.68,250.37,60.42Z" transform="translate(-60.75 -60.42)"/></g><path id="rect4" class="cls-1" d="M246.05,187h19.11c36.17,0,65.49,32.32,65.49,72.19h0c0,39.87-29.32,72.19-65.49,72.19H246.05c-36.17,0-65.49-32.32-65.49-72.19h0C180.56,219.27,209.88,187,246.05,187Z" transform="translate(-60.75 -60.42)"/><path id="path6-4" class="cls-1" d="M274,122.22l-23.6-52.45-28.63,66c-12.54,28.93-21,31.82-31.76,63.17L154.76,301.36C144.55,331,187,342,219.35,341.9l75.06-.16c32.35-.06,83.79-18.24,69-45.93l-35.31-66C313.21,202.47,279.35,153.35,274,122.22Zm22.1,194.86-10.79-10.45A54.81,54.81,0,0,1,257.67,314h0c-28,0-51.2-20.59-54-47.05h23.49c2.83,14.94,17,26,33.67,24.41a28.52,28.52,0,0,0,7.05-1.56l-11-10.64,16.53-16,12,11.53a30.83,30.83,0,0,0,3.13-10.45c1.61-16.11-9.88-29.87-25.3-32.51V208.92c27.31,2.73,48.68,25.08,48.68,52.32h0A50.85,50.85,0,0,1,302.33,291l10.28,10Z" transform="translate(-60.75 -60.42)"/><path id="path3787" class="cls-3" d="M60.75,60.42" transform="translate(-60.75 -60.42)"/><path id="path3789" class="cls-4" d="M344.83,391.79l-94.11-47.06v-3h5.21l86,43c47.29,23.65,86,42.9,86,42.79s-13.82-27.84-30.71-61.62c-20-40-30.94-62.3-31.37-63.95-.79-3.08-1.41-4.32-7.52-15-7.48-13.11-31.88-64.3-34.76-69.62-5-9.21-8-15.26-15.19-30-4.26-8.77-9.17-17.38-26.16-51.42-11.69-23.42-23.55-47.71-26.36-54l-5.1-11.38,0-4.29,0-4.29L345,250.26c51.82,103.6,94.16,188.42,94.09,188.48s-42.47-21.06-94.23-46.95Z" transform="translate(-60.75 -60.42)"/><path id="path3791" class="cls-4" d="M61.52,438.64c0-.17,42.48-85.18,94.38-188.92L250.27,61.09l0,4.37,0,4.37-3.67,8.49c-2.21,5.1-37.6,76.34-88.81,178.77-46.83,93.66-85.06,170.37-85,170.47s38.88-19.18,86.19-42.83l86-43h5.23v3l-94.21,47.11c-51.82,25.9-94.31,47.1-94.42,47.1S61.5,438.81,61.52,438.64Z" transform="translate(-60.75 -60.42)"/></g><path class="cls-5" d="M196.38,249.82c0-6.33-.21-11.74-.42-16.2h13.3l.72,6.85h.32a17.6,17.6,0,0,1,15.37-8c6.54,0,11.73,3.32,13.91,8.62h.21a22.62,22.62,0,0,1,6.54-6.13,18.35,18.35,0,0,1,9.66-2.49c9.76,0,17.14,6.85,17.14,22V284.4H257.76V256.78c0-7.37-2.39-11.63-7.48-11.63a7.72,7.72,0,0,0-7.27,5.5,13.08,13.08,0,0,0-.62,4v29.7H227V256c0-6.44-2.29-10.8-7.27-10.8-4.05,0-6.44,3.11-7.38,5.71a10.44,10.44,0,0,0-.62,3.95V284.4H196.38Z" transform="translate(-60.75 -60.42)"/><path class="cls-5" d="M302,219.5c0,4.36-3.32,7.89-8.52,7.89-5,0-8.3-3.53-8.2-7.89-.1-4.57,3.22-8,8.31-8S301.9,214.93,302,219.5Zm-16.31,64.9V233.62h15.79V284.4Z" transform="translate(-60.75 -60.42)"/></svg>