<?xml version="1.0" encoding="UTF-8"?>
<svg version="1.1" xmlns="http://www.w3.org/2000/svg" width="361" height="382">
<path d="M0 0 C1.07406097 -0.00043808 2.14812195 -0.00087616 3.25473022 -0.00132751 C6.78263932 0.00075201 10.31006518 0.02404413 13.83789062 0.04760742 C16.29268128 0.05320633 18.7474753 0.05747504 21.20227051 0.06047058 C27.64670146 0.07189601 34.09092788 0.10134364 40.53527832 0.13458252 C47.11789178 0.16533291 53.70053846 0.17898655 60.28320312 0.1940918 C73.18693595 0.22621533 86.09052738 0.27680303 98.99414062 0.34057617 C98.99414062 1.99057617 98.99414062 3.64057617 98.99414062 5.34057617 C99.92033203 5.30963867 99.92033203 5.30963867 100.86523438 5.27807617 C107.7115383 5.44480503 111.0815708 7.34384514 115.91992188 12.10620117 C118.35280315 14.72693204 120.72262414 17.38275865 123.02148438 20.12182617 C124.59204985 21.88832358 126.18271167 23.53724866 127.87304688 25.18432617 C128.37723145 25.67570068 128.88141602 26.1670752 129.40087891 26.67333984 C130.40728392 27.64619802 131.41984517 28.61273491 132.43896484 29.57226562 C133.67977042 30.77333242 134.84363051 32.05275382 135.99414062 33.34057617 C135.99414062 34.33057617 135.99414062 35.32057617 135.99414062 36.34057617 C136.92226563 36.71182617 136.92226563 36.71182617 137.86914062 37.09057617 C140.39772689 38.57797986 140.71253067 39.77735626 141.99414062 42.34057617 C143.31934565 43.02325755 144.65226244 43.69128028 145.99414062 44.34057617 C146.32414062 45.33057617 146.65414063 46.32057617 146.99414062 47.34057617 C148.99430529 48.54939714 148.99430529 48.54939714 150.99414062 49.34057617 C150.99414062 50.00057617 150.99414062 50.66057617 150.99414062 51.34057617 C151.86039062 51.68088867 151.86039062 51.68088867 152.74414062 52.02807617 C155.85788688 53.84442815 157.18318213 55.17139881 158.99414062 58.34057617 C160.20396745 67.42092475 160.20396745 67.42092475 157.93554688 71.02026367 C155.02852671 72.99727135 151.83543291 73.87147354 148.49414062 74.84057617 C147.77943604 75.05560791 147.06473145 75.27063965 146.32836914 75.4921875 C140.57799279 77.20922857 134.79613489 78.80760779 128.99414062 80.34057617 C124.41272685 81.51326603 124.41272685 81.51326603 120.06835938 83.34057617 C117.92907503 84.3719449 116.07135602 84.83858406 113.74414062 85.27807617 C110.75933702 85.89930359 108.01065444 86.64410821 105.18164062 87.77807617 C100.9983279 89.42504969 96.7371637 90.46128258 92.37304688 91.52026367 C88.53070108 92.45308751 84.69721861 93.41350812 80.86914062 94.40307617 C79.6084375 94.72405273 78.34773437 95.0450293 77.04882812 95.37573242 C73.92215537 96.10502914 73.92215537 96.10502914 71.99414062 98.34057617 C69.80222855 98.88999245 67.58934558 99.35733069 65.36914062 99.77807617 C60.69233861 100.66575551 56.45102994 101.84548827 52.03857422 103.57128906 C48.62363937 104.8562735 45.12519569 105.83752944 41.61914062 106.84057617 C40.11517313 107.27656287 38.61126647 107.71275948 37.10742188 108.14916992 C36.39408691 108.35525879 35.68075195 108.56134766 34.94580078 108.77368164 C32.56083628 109.46643715 30.18313701 110.1818509 27.80664062 110.90307617 C23.86088549 112.09488276 19.89818402 113.21996423 15.93164062 114.34057617 C10.56480012 115.86644259 5.26526949 117.51371694 -0.00585938 119.34057617 C-3.81024534 120.60870483 -7.37011978 120.47184953 -11.33276367 120.45410156 C-12.18176239 120.45424759 -13.03076111 120.45439362 -13.90548706 120.45454407 C-16.71371001 120.45384701 -19.52186675 120.44606423 -22.33007812 120.43823242 C-24.27635156 120.43636751 -26.22262546 120.43494395 -28.16889954 120.4339447 C-33.29319554 120.4301253 -38.41746323 120.4202999 -43.54174805 120.40924072 C-48.77001564 120.39901423 -53.99828779 120.39444442 -59.2265625 120.3894043 C-69.48634057 120.37867714 -79.74609762 120.3616076 -90.00585938 120.34057617 C-90.00585938 121.33057617 -90.00585938 122.32057617 -90.00585938 123.34057617 C-89.28466919 123.3280481 -88.563479 123.31552002 -87.82043457 123.3026123 C-46.92124443 122.60159233 -6.02070341 122.19656477 34.88452148 122.10839844 C39.52894297 122.0980648 44.17325398 122.08065995 48.81762695 122.05712891 C54.35511103 122.02962248 59.89243085 122.01741312 65.42998123 122.01650238 C67.47595149 122.01384478 69.52192269 122.00616814 71.56785202 121.99295807 C95.07773959 121.84991409 114.35605299 126.31618208 132.05664062 143.09057617 C133.99414062 145.34057617 133.99414062 145.34057617 135.05664062 147.52807617 C135.8470118 149.50113099 135.8470118 149.50113099 137.86914062 150.24291992 C140.22029481 151.45739479 141.3046352 152.65139754 142.93164062 154.71557617 C145.36516031 157.69400612 147.97859997 159.94588212 150.99414062 162.34057617 C150.99414062 163.00057617 150.99414062 163.66057617 150.99414062 164.34057617 C151.59355469 164.5906543 152.19296875 164.84073242 152.81054688 165.09838867 C155.30457704 166.51717506 156.32638081 167.85882353 157.93164062 170.21557617 C160.29732312 173.53836685 162.74128592 175.85309905 165.99414062 178.34057617 C165.99414062 179.00057617 165.99414062 179.66057617 165.99414062 180.34057617 C166.82945312 180.68088867 166.82945312 180.68088867 167.68164062 181.02807617 C171.67852948 183.29658066 174.53380711 185.95957563 175.99414062 190.34057617 C177.32469625 191.01276956 178.65835636 191.67883406 179.99414062 192.34057617 C181.52148438 194.11010742 181.52148438 194.11010742 182.93164062 196.15307617 C185.32101373 199.59403967 187.99354547 202.41566369 190.99414062 205.34057617 C192.28384766 206.64768555 192.28384766 206.64768555 193.59960938 207.98120117 C194.45167969 208.84229492 195.30375 209.70338867 196.18164062 210.59057617 C197.47134766 211.89768555 197.47134766 211.89768555 198.78710938 213.23120117 C200.80845128 215.37051856 200.80845128 215.37051856 202.99414062 216.34057617 C203.32414062 217.33057617 203.65414063 218.32057617 203.99414062 219.34057617 C204.65414063 219.67057617 205.31414062 220.00057617 205.99414062 220.34057617 C208.61814788 229.11966216 209.69463184 239.78319024 205.99414062 248.34057617 C204.67414063 248.01057617 203.35414063 247.68057617 201.99414062 247.34057617 C201.96835937 248.36538086 201.94257813 249.39018555 201.91601562 250.44604492 C201.85971004 251.80676317 201.80236326 253.16743861 201.74414062 254.52807617 C201.72996094 255.20161133 201.71578125 255.87514648 201.70117188 256.5690918 C201.33460018 264.08381164 197.02705581 267.30766099 191.99414062 272.34057617 C190.88423015 273.62731062 189.78051488 274.91940404 188.68164062 276.21557617 C186.20870842 279.08893941 183.64321489 281.58647051 180.74414062 284.02807617 C177.73840748 286.5722764 175.90970528 288.87431632 173.99414062 292.34057617 C169.64631454 297.12318487 169.64631454 297.12318487 165.99414062 298.34057617 C165.70539063 298.91807617 165.41664063 299.49557617 165.11914062 300.09057617 C162.85432391 304.62020961 158.6738436 307.61637016 154.86914062 310.84057617 C151.85413255 313.43053612 149.91024197 315.8277237 147.99414062 319.34057617 C147.33414062 319.34057617 146.67414063 319.34057617 145.99414062 319.34057617 C145.72601563 319.97995117 145.45789063 320.61932617 145.18164062 321.27807617 C143.99414062 323.34057617 143.99414062 323.34057617 140.99414062 324.34057617 C140.66414063 325.00057617 140.33414062 325.66057617 139.99414062 326.34057617 C139.66414063 327.00057617 139.33414062 327.66057617 138.99414062 328.34057617 C138.00414062 328.67057617 137.01414062 329.00057617 135.99414062 329.34057617 C135.66414062 330.00057617 135.33414063 330.66057617 134.99414062 331.34057617 C134.66414062 332.00057617 134.33414063 332.66057617 133.99414062 333.34057617 C133.00414062 333.67057617 132.01414062 334.00057617 130.99414062 334.34057617 C130.66414062 335.33057617 130.33414063 336.32057617 129.99414062 337.34057617 C127.99023437 338.77026367 127.99023437 338.77026367 125.43164062 340.21557617 C121.69812282 342.3136672 121.69812282 342.3136672 118.15039062 344.69995117 C112.30496971 349.00430658 105.59977506 350.07812092 98.62695312 351.54370117 C95.18454086 352.14321473 95.18454086 352.14321473 92.99414062 353.34057617 C91.62567322 353.43213722 90.25284316 353.46251561 88.88131714 353.46083069 C88.0203241 353.46220535 87.15933105 353.46358002 86.27224731 353.46499634 C84.85237015 353.45960342 84.85237015 353.45960342 83.40380859 353.45410156 C81.91107422 353.4543206 81.91107422 353.4543206 80.38818359 353.45454407 C77.08754319 353.45384549 73.78695871 353.44605561 70.48632812 353.43823242 C68.20232168 353.43636805 65.91831484 353.43494424 63.63430786 353.4339447 C57.61402284 353.43012104 51.59376184 353.42029203 45.57348633 353.40924072 C39.43375981 353.39902336 33.29402943 353.39444638 27.15429688 353.3894043 C15.10090089 353.37866965 3.04752275 353.36159502 -9.00585938 353.34057617 C-9.38804705 351.6844296 -9.71981039 350.01600593 -10.00585938 348.34057617 C-9.67585938 348.01057617 -9.34585938 347.68057617 -9.00585938 347.34057617 C-10.10994141 347.21102539 -10.10994141 347.21102539 -11.23632812 347.07885742 C-17.48549636 346.17904324 -20.92227029 345.44506253 -25.00585938 340.34057617 C-26.20206311 339.1202338 -27.41119277 337.91246892 -28.63085938 336.71557617 C-29.75585938 335.59057617 -30.88085938 334.46557617 -32.00585938 333.34057617 C-32.74255859 332.61547852 -32.74255859 332.61547852 -33.49414062 331.87573242 C-35.24367453 330.09907396 -36.91199254 328.26693605 -38.56835938 326.40307617 C-39.16777344 325.73405273 -39.7671875 325.0650293 -40.38476562 324.37573242 C-42.00585938 322.34057617 -42.00585938 322.34057617 -43.08789062 320.16479492 C-44.27737323 317.8010146 -45.60016098 317.30285553 -48.00585938 316.34057617 C-48.00585938 315.68057617 -48.00585938 315.02057617 -48.00585938 314.34057617 C-48.66585937 314.34057617 -49.32585937 314.34057617 -50.00585938 314.34057617 C-50.00585938 313.68057617 -50.00585938 313.02057617 -50.00585938 312.34057617 C-51.32585937 311.68057617 -52.64585938 311.02057617 -54.00585938 310.34057617 C-54.00585938 309.68057617 -54.00585938 309.02057617 -54.00585938 308.34057617 C-54.93398437 308.00026367 -54.93398437 308.00026367 -55.88085938 307.65307617 C-58.61996146 305.96127782 -59.05610409 304.34813456 -60.00585938 301.34057617 C-60.66585937 301.34057617 -61.32585937 301.34057617 -62.00585938 301.34057617 C-68.78174404 295.24227997 -68.78174404 295.24227997 -69.15429688 290.41870117 C-69.21412957 287.1398697 -69.04673406 284.46320022 -68.00585938 281.34057617 C-62.69632987 278.04866788 -57.31125115 276.50029083 -51.27539062 274.98364258 C-45.90357396 273.62363919 -40.6501812 271.9896998 -35.38085938 270.27807617 C-28.8587285 268.16668886 -22.37022594 266.42888718 -15.66210938 264.98901367 C-13.36468622 264.42817214 -11.39628543 263.76072631 -9.25585938 262.77807617 C-5.90426854 261.29564176 -2.82042173 260.59605601 0.74804688 259.86791992 C2.88832766 259.36541921 4.8266142 258.70922668 6.86914062 257.90307617 C9.87698187 256.71763286 12.86795899 255.79144804 15.99414062 254.96557617 C20.82543811 253.68670331 25.59892798 252.26550334 30.36914062 250.77807617 C31.38621094 250.46314209 31.38621094 250.46314209 32.42382812 250.1418457 C35.19902864 249.27115407 37.93103683 248.36591118 40.63085938 247.28198242 C43.19944662 246.25879312 45.75716041 245.53859654 48.43164062 244.84057617 C51.30469922 244.07646484 54.11660361 243.29888665 56.93164062 242.34057617 C59.89437793 241.37315175 62.84005101 240.63293172 65.86914062 239.90307617 C70.06061326 238.87458905 74.04182196 237.69113171 78.04882812 236.09838867 C81.64502719 234.69745972 85.32726266 233.54117132 88.99414062 232.34057617 C89.98414063 232.01057617 90.97414062 231.68057617 91.99414062 231.34057617 C45.95914063 230.84557617 45.95914063 230.84557617 -1.00585938 230.34057617 C-1.00585938 229.68057617 -1.00585938 229.02057617 -1.00585938 228.34057617 C-1.61171875 228.31479492 -2.21757812 228.28901367 -2.84179688 228.26245117 C-19.66545443 227.12361897 -35.7581223 216.52562466 -47.00585938 204.34057617 C-48.24335938 202.82463867 -48.24335938 202.82463867 -49.50585938 201.27807617 C-51.88230896 198.29478963 -51.88230896 198.29478963 -54.75585938 196.15307617 C-57.00585938 194.34057617 -57.00585938 194.34057617 -58.00585938 191.34057617 C-60.6760556 188.4347744 -63.54743148 185.86776101 -66.56835938 183.34057617 C-69.44813821 180.90862472 -71.70243328 178.33503009 -74.00585938 175.34057617 C-76.38348151 172.90198937 -78.81403205 170.52707496 -81.25585938 168.15307617 C-84.5206896 164.81404526 -87.60658226 161.33453039 -90.71289062 157.84838867 C-93.30018247 155.01867596 -96.00268888 152.34583451 -98.79101562 149.71557617 C-100.00585938 148.34057617 -100.00585938 148.34057617 -100.00585938 146.34057617 C-100.60527344 146.08920898 -101.2046875 145.8378418 -101.82226562 145.57885742 C-104.2994809 144.17406808 -105.33546225 142.8575227 -106.94335938 140.52807617 C-108.76565956 137.97409485 -110.42988866 135.92640804 -112.69335938 133.71557617 C-118.20625286 128.05368556 -118.47820539 122.59703557 -118.38085938 115.09057617 C-118.39246094 114.18049805 -118.4040625 113.27041992 -118.41601562 112.33276367 C-118.41214844 111.46393555 -118.40828125 110.59510742 -118.40429688 109.69995117 C-118.40091309 108.91072266 -118.3975293 108.12149414 -118.39404297 107.30834961 C-118.20189209 106.33430176 -118.20189209 106.33430176 -118.00585938 105.34057617 C-115.00585938 103.34057617 -115.00585938 103.34057617 -111.00585938 103.34057617 C-111.04066406 102.62772461 -111.07546875 101.91487305 -111.11132812 101.18041992 C-111.28092354 95.17997273 -111.26661396 90.57754565 -108.00585938 85.34057617 C-105.77417166 83.18246058 -103.48118951 81.18357633 -101.06445312 79.23510742 C-99.02344575 77.35676098 -98.04871321 75.88288471 -97.00585938 73.34057617 C-96.34585938 73.34057617 -95.68585938 73.34057617 -95.00585938 73.34057617 C-94.77898437 72.78370117 -94.55210938 72.22682617 -94.31835938 71.65307617 C-92.25780644 68.02257814 -89.59937984 65.11457183 -85.81835938 63.27807617 C-83.47725006 62.06715756 -82.96514812 60.73879803 -82.00585938 58.34057617 C-81.34585938 58.34057617 -80.68585938 58.34057617 -80.00585938 58.34057617 C-80.00585938 57.68057617 -80.00585938 57.02057617 -80.00585938 56.34057617 C-79.34585938 56.34057617 -78.68585938 56.34057617 -78.00585938 56.34057617 C-77.67585938 55.35057617 -77.34585938 54.36057617 -77.00585938 53.34057617 C-76.01585937 52.68057617 -75.02585938 52.02057617 -74.00585938 51.34057617 C-73.49023438 50.47432617 -72.97460938 49.60807617 -72.44335938 48.71557617 C-71.96898437 47.93182617 -71.49460938 47.14807617 -71.00585938 46.34057617 C-70.34585938 46.34057617 -69.68585938 46.34057617 -69.00585938 46.34057617 C-69.00585938 45.35057617 -69.00585938 44.36057617 -69.00585938 43.34057617 C-68.22210938 43.09307617 -67.43835938 42.84557617 -66.63085938 42.59057617 C-63.53931906 41.11841412 -63.31265303 40.38976138 -62.00585938 37.34057617 C-58.6897972 32.58755372 -58.6897972 32.58755372 -55.75585938 31.52807617 C-55.17835937 31.46620117 -54.60085937 31.40432617 -54.00585938 31.34057617 C-54.00585938 30.35057617 -54.00585938 29.36057617 -54.00585938 28.34057617 C-53.20148438 28.09307617 -52.39710937 27.84557617 -51.56835938 27.59057617 C-50.72273438 27.17807617 -49.87710938 26.76557617 -49.00585938 26.34057617 C-48.32437708 24.44878414 -48.32437708 24.44878414 -48.00585938 22.34057617 C-45.73389494 18.2749556 -43.29837337 17.740309 -39.00585938 16.34057617 C-38.67585938 15.35057617 -38.34585938 14.36057617 -38.00585938 13.34057617 C-32.87369236 9.37194087 -27.21235407 5.98543317 -21.01145172 4.01698017 C-19.12010723 3.37910728 -17.28343731 2.58530283 -15.45544434 1.78373718 C-10.3257645 -0.13807915 -5.42269195 -0.05849881 0 0 Z M100.99414062 230.34057617 C101.98414063 230.83557617 101.98414063 230.83557617 102.99414062 231.34057617 C102.99414062 232.99057617 102.99414062 234.64057617 102.99414062 236.34057617 C103.59226563 235.72182617 104.19039062 235.10307617 104.80664062 234.46557617 C106.99414062 232.34057617 106.99414062 232.34057617 109.99414062 230.34057617 C107.02414063 230.34057617 104.05414063 230.34057617 100.99414062 230.34057617 Z " fill="#FBBB58" transform="translate(137.005859375,15.659423828125)"/>
<path d="M0 0 C1.98 0 3.96 0 6 0 C6 0.66 6 1.32 6 2 C6.92876135 1.99723462 7.8575227 1.99446924 8.81442833 1.99162006 C31.43341004 1.92496417 54.05237897 1.87569555 76.67143822 1.84456348 C87.60993317 1.82910734 98.54836316 1.80804175 109.48681641 1.77368164 C119.02291713 1.74374096 128.55897079 1.72441589 138.09511721 1.71773452 C143.14248457 1.71383018 148.18971733 1.70468049 153.23704147 1.68280983 C157.99269769 1.66237094 162.7481645 1.65618113 167.50386047 1.66067696 C169.24445756 1.65985506 170.98506131 1.65393368 172.72562027 1.64238358 C191.84738154 1.52177244 191.84738154 1.52177244 198 5 C198.33 5.99 198.66 6.98 199 8 C201.01508358 8.73323796 201.01508358 8.73323796 203 9 C203.0825 9.61875 203.165 10.2375 203.25 10.875 C203.80115872 13.18581338 203.80115872 13.18581338 206.046875 14.1328125 C206.69140625 14.41898437 207.3359375 14.70515625 208 15 C207.94791754 18.23045973 207.85279846 21.45828759 207.75 24.6875 C207.73582031 25.59951172 207.72164063 26.51152344 207.70703125 27.45117188 C207.5090542 32.89554067 207.12745241 36.06470087 203 40 C202.236875 40.763125 201.47375 41.52625 200.6875 42.3125 C199.800625 43.199375 198.91375 44.08625 198 45 C196.89008952 46.28673445 195.78637425 47.57882787 194.6875 48.875 C192.2145678 51.74836324 189.64907426 54.24589434 186.75 56.6875 C183.74426685 59.23170023 181.91556466 61.53374015 180 65 C175.65217391 69.7826087 175.65217391 69.7826087 172 71 C171.71125 71.5775 171.4225 72.155 171.125 72.75 C168.86018328 77.27963344 164.67970297 80.27579399 160.875 83.5 C157.85999192 86.08995995 155.91610135 88.48714753 154 92 C153.34 92 152.68 92 152 92 C151.731875 92.639375 151.46375 93.27875 151.1875 93.9375 C150 96 150 96 147 97 C146.67 97.66 146.34 98.32 146 99 C145.67 99.66 145.34 100.32 145 101 C144.01 101.33 143.02 101.66 142 102 C141.67 102.66 141.34 103.32 141 104 C140.67 104.66 140.34 105.32 140 106 C139.01 106.33 138.02 106.66 137 107 C136.67 107.99 136.34 108.98 136 110 C133.99609375 111.4296875 133.99609375 111.4296875 131.4375 112.875 C127.7039822 114.97309103 127.7039822 114.97309103 124.15625 117.359375 C118.31082908 121.6637304 111.60563444 122.73754474 104.6328125 124.203125 C101.19040024 124.80263856 101.19040024 124.80263856 99 126 C97.63153259 126.09156105 96.25870253 126.12193944 94.88717651 126.12025452 C94.02618347 126.12162918 93.16519043 126.12300385 92.27810669 126.12442017 C91.33152191 126.12082489 90.38493713 126.11722961 89.40966797 126.11352539 C87.91693359 126.11374443 87.91693359 126.11374443 86.39404297 126.1139679 C83.09340257 126.11326931 79.79281808 126.10547944 76.4921875 126.09765625 C74.20818106 126.09579188 71.92417422 126.09436807 69.64016724 126.09336853 C63.61988222 126.08954487 57.59962121 126.07971586 51.5793457 126.06866455 C45.43961919 126.05844718 39.29988881 126.05387021 33.16015625 126.04882812 C21.10676027 126.03809348 9.05338213 126.02101885 -3 126 C-3.38218767 124.34385343 -3.71395102 122.67542976 -4 121 C-3.67 120.67 -3.34 120.34 -3 120 C-4.10408203 119.87044922 -4.10408203 119.87044922 -5.23046875 119.73828125 C-11.47963698 118.83846707 -14.91641091 118.10448636 -19 113 C-20.19620374 111.77965762 -21.40533339 110.57189275 -22.625 109.375 C-23.75 108.25 -24.875 107.125 -26 106 C-26.73669922 105.27490234 -26.73669922 105.27490234 -27.48828125 104.53515625 C-29.23781516 102.75849778 -30.90613316 100.92635988 -32.5625 99.0625 C-33.46162109 98.05896484 -33.46162109 98.05896484 -34.37890625 97.03515625 C-36 95 -36 95 -37.08203125 92.82421875 C-38.27151385 90.46043843 -39.59430161 89.96227936 -42 89 C-42 88.34 -42 87.68 -42 87 C-42.66 87 -43.32 87 -44 87 C-44 86.34 -44 85.68 -44 85 C-45.32 84.34 -46.64 83.68 -48 83 C-48 82.34 -48 81.68 -48 81 C-48.61875 80.773125 -49.2375 80.54625 -49.875 80.3125 C-52.61410209 78.62070165 -53.05024472 77.00755839 -54 74 C-54.66 74 -55.32 74 -56 74 C-62.77588467 67.9017038 -62.77588467 67.9017038 -63.1484375 63.078125 C-63.20827019 59.79929353 -63.04087468 57.12262405 -62 54 C-56.69047049 50.7080917 -51.30539177 49.15971466 -45.26953125 47.64306641 C-39.89771458 46.28306302 -34.64432182 44.64912362 -29.375 42.9375 C-22.85286913 40.82611269 -16.36436657 39.08831101 -9.65625 37.6484375 C-7.35882685 37.08759597 -5.39042605 36.42015014 -3.25 35.4375 C0.10159083 33.95506559 3.18543764 33.25547984 6.75390625 32.52734375 C8.89418704 32.02484304 10.83247357 31.36865051 12.875 30.5625 C15.88284124 29.37705669 18.87381836 28.45087187 22 27.625 C26.83129749 26.34612714 31.60478735 24.92492717 36.375 23.4375 C37.05304688 23.22754395 37.73109375 23.01758789 38.4296875 22.80126953 C41.20488802 21.9305779 43.93689621 21.025335 46.63671875 19.94140625 C49.205306 18.91821695 51.76301979 18.19802037 54.4375 17.5 C57.3105586 16.73588867 60.12246298 15.95831047 62.9375 15 C65.9002373 14.03257557 68.84591038 13.29235555 71.875 12.5625 C76.06647264 11.53401288 80.04768134 10.35055553 84.0546875 8.7578125 C87.65088656 7.35688355 91.33312204 6.20059515 95 5 C95.99 4.67 96.98 4.34 98 4 C67.31 3.67 36.62 3.34 5 3 C5 2.34 5 1.68 5 1 C3.35 1 1.7 1 0 1 C0 0.67 0 0.34 0 0 Z M107 3 C107.99 3.495 107.99 3.495 109 4 C109 5.65 109 7.3 109 9 C109.598125 8.38125 110.19625 7.7625 110.8125 7.125 C113 5 113 5 116 3 C113.03 3 110.06 3 107 3 Z " fill="#FC5656" transform="translate(131,243)"/>
<path d="M0 0 C1.07406097 -0.00043808 2.14812195 -0.00087616 3.25473022 -0.00132751 C6.78263932 0.00075201 10.31006518 0.02404413 13.83789062 0.04760742 C16.29268128 0.05320633 18.7474753 0.05747504 21.20227051 0.06047058 C27.64670146 0.07189601 34.09092788 0.10134364 40.53527832 0.13458252 C47.11789178 0.16533291 53.70053846 0.17898655 60.28320312 0.1940918 C73.18693595 0.22621533 86.09052738 0.27680303 98.99414062 0.34057617 C98.99414062 1.99057617 98.99414062 3.64057617 98.99414062 5.34057617 C99.92033203 5.30963867 99.92033203 5.30963867 100.86523438 5.27807617 C107.7115383 5.44480503 111.0815708 7.34384514 115.91992188 12.10620117 C118.35280315 14.72693204 120.72262414 17.38275865 123.02148438 20.12182617 C124.59204985 21.88832358 126.18271167 23.53724866 127.87304688 25.18432617 C128.37723145 25.67570068 128.88141602 26.1670752 129.40087891 26.67333984 C130.40728392 27.64619802 131.41984517 28.61273491 132.43896484 29.57226562 C133.67977042 30.77333242 134.84363051 32.05275382 135.99414062 33.34057617 C135.99414062 34.33057617 135.99414062 35.32057617 135.99414062 36.34057617 C136.92226563 36.71182617 136.92226563 36.71182617 137.86914062 37.09057617 C140.39772689 38.57797986 140.71253067 39.77735626 141.99414062 42.34057617 C143.31934565 43.02325755 144.65226244 43.69128028 145.99414062 44.34057617 C146.32414062 45.33057617 146.65414063 46.32057617 146.99414062 47.34057617 C148.99430529 48.54939714 148.99430529 48.54939714 150.99414062 49.34057617 C150.99414062 50.00057617 150.99414062 50.66057617 150.99414062 51.34057617 C151.86039062 51.68088867 151.86039062 51.68088867 152.74414062 52.02807617 C155.85788688 53.84442815 157.18318213 55.17139881 158.99414062 58.34057617 C160.20396745 67.42092475 160.20396745 67.42092475 157.93554688 71.02026367 C155.02852671 72.99727135 151.83543291 73.87147354 148.49414062 74.84057617 C147.77943604 75.05560791 147.06473145 75.27063965 146.32836914 75.4921875 C140.57799279 77.20922857 134.79613489 78.80760779 128.99414062 80.34057617 C124.41272685 81.51326603 124.41272685 81.51326603 120.06835938 83.34057617 C117.92907503 84.3719449 116.07135602 84.83858406 113.74414062 85.27807617 C110.75933702 85.89930359 108.01065444 86.64410821 105.18164062 87.77807617 C100.9983279 89.42504969 96.7371637 90.46128258 92.37304688 91.52026367 C88.53070108 92.45308751 84.69721861 93.41350812 80.86914062 94.40307617 C79.6084375 94.72405273 78.34773437 95.0450293 77.04882812 95.37573242 C73.92215537 96.10502914 73.92215537 96.10502914 71.99414062 98.34057617 C69.80222855 98.88999245 67.58934558 99.35733069 65.36914062 99.77807617 C60.69233861 100.66575551 56.45102994 101.84548827 52.03857422 103.57128906 C48.62363937 104.8562735 45.12519569 105.83752944 41.61914062 106.84057617 C40.11517313 107.27656287 38.61126647 107.71275948 37.10742188 108.14916992 C36.39408691 108.35525879 35.68075195 108.56134766 34.94580078 108.77368164 C32.56083628 109.46643715 30.18313701 110.1818509 27.80664062 110.90307617 C23.86088549 112.09488276 19.89818402 113.21996423 15.93164062 114.34057617 C10.56480012 115.86644259 5.26526949 117.51371694 -0.00585938 119.34057617 C-3.81024534 120.60870483 -7.37011978 120.47184953 -11.33276367 120.45410156 C-12.18176239 120.45424759 -13.03076111 120.45439362 -13.90548706 120.45454407 C-16.71371001 120.45384701 -19.52186675 120.44606423 -22.33007812 120.43823242 C-24.27635156 120.43636751 -26.22262546 120.43494395 -28.16889954 120.4339447 C-33.29319554 120.4301253 -38.41746323 120.4202999 -43.54174805 120.40924072 C-48.77001564 120.39901423 -53.99828779 120.39444442 -59.2265625 120.3894043 C-69.48634057 120.37867714 -79.74609762 120.3616076 -90.00585938 120.34057617 C-90.33585937 121.33057617 -90.66585937 122.32057617 -91.00585938 123.34057617 C-91.00585938 122.68057617 -91.00585938 122.02057617 -91.00585938 121.34057617 C-91.59753906 121.30319336 -92.18921875 121.26581055 -92.79882812 121.22729492 C-100.87773727 120.55515077 -104.65440458 118.06961012 -109.86914062 111.96166992 C-111.00585938 110.34057617 -111.00585938 110.34057617 -111.00585938 108.34057617 C-111.66585937 108.34057617 -112.32585937 108.34057617 -113.00585938 108.34057617 C-113.00585938 107.02057617 -113.00585938 105.70057617 -113.00585938 104.34057617 C-113.66585937 104.01057617 -114.32585937 103.68057617 -115.00585938 103.34057617 C-113.68585938 103.34057617 -112.36585937 103.34057617 -111.00585938 103.34057617 C-111.05806641 102.27129883 -111.05806641 102.27129883 -111.11132812 101.18041992 C-111.28092354 95.17997273 -111.26661396 90.57754565 -108.00585938 85.34057617 C-105.77417166 83.18246058 -103.48118951 81.18357633 -101.06445312 79.23510742 C-99.02344575 77.35676098 -98.04871321 75.88288471 -97.00585938 73.34057617 C-96.34585938 73.34057617 -95.68585938 73.34057617 -95.00585938 73.34057617 C-94.77898437 72.78370117 -94.55210938 72.22682617 -94.31835938 71.65307617 C-92.25780644 68.02257814 -89.59937984 65.11457183 -85.81835938 63.27807617 C-83.47725006 62.06715756 -82.96514812 60.73879803 -82.00585938 58.34057617 C-81.34585938 58.34057617 -80.68585938 58.34057617 -80.00585938 58.34057617 C-80.00585938 57.68057617 -80.00585938 57.02057617 -80.00585938 56.34057617 C-79.34585938 56.34057617 -78.68585938 56.34057617 -78.00585938 56.34057617 C-77.67585938 55.35057617 -77.34585938 54.36057617 -77.00585938 53.34057617 C-76.01585937 52.68057617 -75.02585938 52.02057617 -74.00585938 51.34057617 C-73.49023438 50.47432617 -72.97460938 49.60807617 -72.44335938 48.71557617 C-71.96898437 47.93182617 -71.49460938 47.14807617 -71.00585938 46.34057617 C-70.34585938 46.34057617 -69.68585938 46.34057617 -69.00585938 46.34057617 C-69.00585938 45.35057617 -69.00585938 44.36057617 -69.00585938 43.34057617 C-68.22210938 43.09307617 -67.43835938 42.84557617 -66.63085938 42.59057617 C-63.53931906 41.11841412 -63.31265303 40.38976138 -62.00585938 37.34057617 C-58.6897972 32.58755372 -58.6897972 32.58755372 -55.75585938 31.52807617 C-55.17835937 31.46620117 -54.60085937 31.40432617 -54.00585938 31.34057617 C-54.00585938 30.35057617 -54.00585938 29.36057617 -54.00585938 28.34057617 C-53.20148438 28.09307617 -52.39710937 27.84557617 -51.56835938 27.59057617 C-50.72273438 27.17807617 -49.87710938 26.76557617 -49.00585938 26.34057617 C-48.32437708 24.44878414 -48.32437708 24.44878414 -48.00585938 22.34057617 C-45.73389494 18.2749556 -43.29837337 17.740309 -39.00585938 16.34057617 C-38.67585938 15.35057617 -38.34585938 14.36057617 -38.00585938 13.34057617 C-32.87369236 9.37194087 -27.21235407 5.98543317 -21.01145172 4.01698017 C-19.12010723 3.37910728 -17.28343731 2.58530283 -15.45544434 1.78373718 C-10.3257645 -0.13807915 -5.42269195 -0.05849881 0 0 Z " fill="#F65153" transform="translate(137.005859375,15.659423828125)"/>
<path d="M0 0 C0.90105469 0.00902344 1.80210937 0.01804688 2.73046875 0.02734375 C3.41753906 0.03894531 4.10460937 0.05054688 4.8125 0.0625 C5.25 2.6875 5.25 2.6875 4.8125 6.0625 C3.28760499 7.75077662 1.61857006 9.03866123 -0.18359375 10.42578125 C-2.99267818 12.72014065 -5.20582649 15.41038233 -7.546875 18.16796875 C-8.99321561 19.83814778 -10.48097425 21.39687578 -12.0625 22.9375 C-14.22702847 24.8780338 -14.22702847 24.8780338 -15.1875 27.0625 C-15.8475 27.0625 -16.5075 27.0625 -17.1875 27.0625 C-17.455625 27.701875 -17.72375 28.34125 -18 29 C-19.1875 31.0625 -19.1875 31.0625 -22.1875 32.0625 C-22.5175 32.7225 -22.8475 33.3825 -23.1875 34.0625 C-23.5175 34.7225 -23.8475 35.3825 -24.1875 36.0625 C-25.1775 36.3925 -26.1675 36.7225 -27.1875 37.0625 C-27.5175 37.7225 -27.8475 38.3825 -28.1875 39.0625 C-28.5175 39.7225 -28.8475 40.3825 -29.1875 41.0625 C-30.1775 41.3925 -31.1675 41.7225 -32.1875 42.0625 C-32.5175 42.7225 -32.8475 43.3825 -33.1875 44.0625 C-33.5175 44.7225 -33.8475 45.3825 -34.1875 46.0625 C-35.1775 46.3925 -36.1675 46.7225 -37.1875 47.0625 C-37.47625 47.805 -37.765 48.5475 -38.0625 49.3125 C-39.47969833 52.77676259 -41.45739611 54.52286847 -44.1875 57.0625 C-45.0125 57.8875 -45.8375 58.7125 -46.6875 59.5625 C-54.1875 67.0625 -54.1875 67.0625 -56.6875 69.5 C-58.85243418 71.71905753 -60.8474133 74.00620308 -62.81640625 76.3984375 C-67.28908259 81.82681392 -71.81069762 86.71783963 -77.1953125 91.25390625 C-79.99271037 93.79350471 -82.35680067 96.63510803 -84.7421875 99.55859375 C-85.21914062 100.05488281 -85.69609375 100.55117188 -86.1875 101.0625 C-86.8475 101.0625 -87.5075 101.0625 -88.1875 101.0625 C-88.414375 101.784375 -88.64125 102.50625 -88.875 103.25 C-91.2061938 108.24541529 -94.32205363 110.97344664 -99.4375 112.875 C-106.35198218 114.89650974 -113.53945849 115.01718511 -120.1875 112.0625 C-122.76932134 109.58639979 -124.94938556 106.84662787 -127.1875 104.0625 C-128.0125 103.2375 -128.8375 102.4125 -129.6875 101.5625 C-138.20535714 93.04464286 -138.20535714 93.04464286 -140.26171875 88.89453125 C-141.45782457 86.52755391 -142.77595406 86.02711838 -145.1875 85.0625 C-145.1875 84.4025 -145.1875 83.7425 -145.1875 83.0625 C-145.8475 83.0625 -146.5075 83.0625 -147.1875 83.0625 C-147.1875 82.4025 -147.1875 81.7425 -147.1875 81.0625 C-148.5075 80.4025 -149.8275 79.7425 -151.1875 79.0625 C-151.1875 78.4025 -151.1875 77.7425 -151.1875 77.0625 C-151.80625 76.835625 -152.425 76.60875 -153.0625 76.375 C-155.80160209 74.68320165 -156.23774472 73.07005839 -157.1875 70.0625 C-157.8475 70.0625 -158.5075 70.0625 -159.1875 70.0625 C-165.96338467 63.9642038 -165.96338467 63.9642038 -166.3359375 59.140625 C-166.39577019 55.86179353 -166.22837468 53.18512405 -165.1875 50.0625 C-159.87797049 46.7705917 -154.49289177 45.22221466 -148.45703125 43.70556641 C-143.08521458 42.34556302 -137.83182182 40.71162362 -132.5625 39 C-126.04036913 36.88861269 -119.55186657 35.15081101 -112.84375 33.7109375 C-110.54632685 33.15009597 -108.57792605 32.48265014 -106.4375 31.5 C-103.08590917 30.01756559 -100.00206236 29.31797984 -96.43359375 28.58984375 C-94.29331296 28.08734304 -92.35502643 27.43115051 -90.3125 26.625 C-87.30465876 25.43955669 -84.31368164 24.51337187 -81.1875 23.6875 C-76.35620251 22.40862714 -71.58271265 20.98742717 -66.8125 19.5 C-66.13445312 19.29004395 -65.45640625 19.08008789 -64.7578125 18.86376953 C-61.98261198 17.9930779 -59.25060379 17.087835 -56.55078125 16.00390625 C-53.982194 14.98071695 -51.42448021 14.26052037 -48.75 13.5625 C-45.8769414 12.79838867 -43.06503702 12.02081047 -40.25 11.0625 C-37.2872627 10.09507557 -34.34158962 9.35485555 -31.3125 8.625 C-27.12102736 7.59651288 -23.13981866 6.41305553 -19.1328125 4.8203125 C-15.53661344 3.41938355 -11.85437796 2.26309515 -8.1875 1.0625 C-5.17259443 0.05753148 -3.14568308 -0.04085303 0 0 Z " fill="#FA8F4C" transform="translate(234.1875,246.9375)"/>
<path d="M0 0 C2.32260171 2.04277018 4.36819611 4.16017963 6.39453125 6.49609375 C6.96171875 7.13160156 7.52890625 7.76710938 8.11328125 8.421875 C9.23050832 9.69456528 10.33317356 10.98016757 11.421875 12.27734375 C12.99244048 14.04384116 14.5831023 15.69276624 16.2734375 17.33984375 C16.77762207 17.83121826 17.28180664 18.32259277 17.80126953 18.82885742 C18.80767455 19.8017156 19.8202358 20.76825249 20.83935547 21.7277832 C22.08016104 22.92884999 23.24402114 24.2082714 24.39453125 25.49609375 C24.39453125 26.48609375 24.39453125 27.47609375 24.39453125 28.49609375 C25.01328125 28.74359375 25.63203125 28.99109375 26.26953125 29.24609375 C28.79811752 30.73349744 29.11292129 31.93287384 30.39453125 34.49609375 C31.71973628 35.17877513 33.05265307 35.84679785 34.39453125 36.49609375 C34.72453125 37.48609375 35.05453125 38.47609375 35.39453125 39.49609375 C37.39469591 40.70491471 37.39469591 40.70491471 39.39453125 41.49609375 C39.39453125 42.15609375 39.39453125 42.81609375 39.39453125 43.49609375 C39.97203125 43.72296875 40.54953125 43.94984375 41.14453125 44.18359375 C44.2582775 45.99994573 45.58357276 47.32691639 47.39453125 50.49609375 C48.60435807 59.57644233 48.60435807 59.57644233 46.3359375 63.17578125 C43.42891733 65.15278893 40.23582353 66.02699112 36.89453125 66.99609375 C36.17982666 67.21112549 35.46512207 67.42615723 34.72875977 67.64770508 C28.97838342 69.36474615 23.19652552 70.96312537 17.39453125 72.49609375 C12.81311748 73.66878361 12.81311748 73.66878361 8.46875 75.49609375 C6.32946565 76.52746248 4.47174664 76.99410163 2.14453125 77.43359375 C-0.84027236 78.05482117 -3.58895493 78.79962579 -6.41796875 79.93359375 C-10.60128148 81.58056726 -14.86244567 82.61680016 -19.2265625 83.67578125 C-23.0689083 84.60860508 -26.90239076 85.5690257 -30.73046875 86.55859375 C-31.99117188 86.87957031 -33.251875 87.20054688 -34.55078125 87.53125 C-37.67745401 88.26054672 -37.67745401 88.26054672 -39.60546875 90.49609375 C-41.79738083 91.04551003 -44.01026379 91.51284827 -46.23046875 91.93359375 C-50.90727077 92.82127309 -55.14857944 94.00100585 -59.56103516 95.72680664 C-62.97597 97.01179108 -66.47441368 97.99304702 -69.98046875 98.99609375 C-71.48443625 99.43208044 -72.98834291 99.86827706 -74.4921875 100.3046875 C-75.20552246 100.51077637 -75.91885742 100.71686523 -76.65380859 100.92919922 C-79.0387731 101.62195473 -81.41647237 102.33736848 -83.79296875 103.05859375 C-87.73872389 104.25040034 -91.70142535 105.37548181 -95.66796875 106.49609375 C-101.03480925 108.02196017 -106.33433989 109.66923452 -111.60546875 111.49609375 C-114.48758177 112.45679809 -116.30396919 112.60191258 -119.29296875 112.55859375 C-120.10121094 112.54957031 -120.90945312 112.54054688 -121.7421875 112.53125 C-122.35707031 112.51964844 -122.97195312 112.50804687 -123.60546875 112.49609375 C-123.91796875 110.30859375 -123.91796875 110.30859375 -123.60546875 107.49609375 C-121.23046875 104.87109375 -121.23046875 104.87109375 -118.60546875 102.49609375 C-117.94546875 101.50609375 -117.28546875 100.51609375 -116.60546875 99.49609375 C-115.94546875 99.49609375 -115.28546875 99.49609375 -114.60546875 99.49609375 C-114.33734375 98.85671875 -114.06921875 98.21734375 -113.79296875 97.55859375 C-112.60546875 95.49609375 -112.60546875 95.49609375 -109.60546875 94.49609375 C-109.11046875 93.50609375 -109.11046875 93.50609375 -108.60546875 92.49609375 C-107.60546875 90.49609375 -107.60546875 90.49609375 -104.60546875 89.49609375 C-104.27546875 88.83609375 -103.94546875 88.17609375 -103.60546875 87.49609375 C-102.60546875 85.49609375 -102.60546875 85.49609375 -99.60546875 84.49609375 C-99.27546875 83.83609375 -98.94546875 83.17609375 -98.60546875 82.49609375 C-97.60546875 80.49609375 -97.60546875 80.49609375 -94.60546875 79.49609375 C-94.33734375 78.79484375 -94.06921875 78.09359375 -93.79296875 77.37109375 C-91.05655719 70.74609733 -84.76020149 64.92281125 -79.16796875 60.62109375 C-76.35363057 58.28725233 -74.20779143 55.73806102 -71.9375 52.88671875 C-71.49792969 52.4278125 -71.05835938 51.96890625 -70.60546875 51.49609375 C-69.94546875 51.49609375 -69.28546875 51.49609375 -68.60546875 51.49609375 C-68.26515625 50.41328125 -68.26515625 50.41328125 -67.91796875 49.30859375 C-66.33215 45.91041072 -64.34423551 44.04378376 -61.60546875 41.49609375 C-60.78046875 40.67109375 -59.95546875 39.84609375 -59.10546875 38.99609375 C-51.60546875 31.49609375 -51.60546875 31.49609375 -49.16796875 29.12109375 C-47.23776077 27.14380753 -45.48754922 25.17920812 -43.73046875 23.05859375 C-41.69218339 20.63975895 -39.60921836 18.56839208 -37.16796875 16.55859375 C-34.53170972 14.38585279 -32.31546649 12.10161681 -30.10546875 9.49609375 C-22.62007579 0.7322966 -11.82138688 -6.8234392 0 0 Z " fill="#FA8F4C" transform="translate(248.60546875,23.50390625)"/>
<path d="M0 0 C1.98 0 3.96 0 6 0 C6 0.66 6 1.32 6 2 C6.92876135 1.99723462 7.8575227 1.99446924 8.81442833 1.99162006 C31.43341004 1.92496417 54.05237897 1.87569555 76.67143822 1.84456348 C87.60993317 1.82910734 98.54836316 1.80804175 109.48681641 1.77368164 C119.02291713 1.74374096 128.55897079 1.72441589 138.09511721 1.71773452 C143.14248457 1.71383018 148.18971733 1.70468049 153.23704147 1.68280983 C157.99269769 1.66237094 162.7481645 1.65618113 167.50386047 1.66067696 C169.24445756 1.65985506 170.98506131 1.65393368 172.72562027 1.64238358 C191.84738154 1.52177244 191.84738154 1.52177244 198 5 C198.33 5.99 198.66 6.98 199 8 C201.01508358 8.73323796 201.01508358 8.73323796 203 9 C203.0825 9.61875 203.165 10.2375 203.25 10.875 C203.80115872 13.18581338 203.80115872 13.18581338 206.046875 14.1328125 C206.69140625 14.41898437 207.3359375 14.70515625 208 15 C207.94791754 18.23045973 207.85279846 21.45828759 207.75 24.6875 C207.73582031 25.59951172 207.72164062 26.51152344 207.70703125 27.45117188 C207.50888434 32.90021196 207.12418938 36.05910792 203 40 C202.175 40.845625 201.35 41.69125 200.5 42.5625 C199.675 43.366875 198.85 44.17125 198 45 C197.236875 45.763125 196.47375 46.52625 195.6875 47.3125 C195.130625 47.869375 194.57375 48.42625 194 49 C193.67 48.34 193.34 47.68 193 47 C193.66 47 194.32 47 195 47 C194.93950287 44.62246262 194.85232887 42.25080939 194.75 39.875 C194.73582031 39.20984375 194.72164062 38.5446875 194.70703125 37.859375 C194.40122159 31.62085801 192.07807381 27.9687015 187.625 23.75 C182.44332689 20.29555126 177.62133759 19.74359736 171.48168945 19.68115234 C170.39032684 19.66608391 170.39032684 19.66608391 169.2769165 19.65071106 C166.88904552 19.61999985 164.50128627 19.60287351 162.11328125 19.5859375 C160.44751543 19.56721042 158.78175894 19.54763587 157.11601257 19.5272522 C152.74264066 19.47602414 148.36923785 19.43635872 143.99572754 19.39910889 C139.54069375 19.35908026 135.08578897 19.30793572 130.63085938 19.2578125 C115.81575115 19.07440888 115.81575115 19.07440888 101 19 C100.01 19 99.02 19 98 19 C99.1446875 17.88625 99.1446875 17.88625 100.3125 16.75 C102.95571199 14.176446 102.95571199 14.176446 104.6875 11.6875 C105.120625 11.130625 105.55375 10.57375 106 10 C106.66 10 107.32 10 108 10 C108 8.02 108 6.04 108 4 C108.99 5.98 108.99 5.98 110 8 C110.99 6.68 111.98 5.36 113 4 C77.36 3.67 41.72 3.34 5 3 C5 2.34 5 1.68 5 1 C3.35 1 1.7 1 0 1 C0 0.67 0 0.34 0 0 Z " fill="#DE3F4D" transform="translate(131,243)"/>
<path d="M0 0 C1.02054544 3.06163631 0.99811561 5.4074959 0.88305664 8.59838867 C0.51385946 18.02533191 0.51385946 18.02533191 5 26 C9.5249024 30.63283192 13.34956494 31.45766409 19.70776367 31.59936523 C22.86221987 31.63071789 26.0137188 31.59833624 29.16796875 31.55859375 C30.85231663 31.55433929 32.53667038 31.55201459 34.22102356 31.55152893 C37.74063936 31.54538002 41.25961461 31.52275585 44.77905273 31.48706055 C49.28837554 31.44168487 53.79712107 31.427028 58.30665112 31.42332363 C61.78023456 31.41889467 65.25369718 31.40359187 68.72722816 31.3844471 C70.39019085 31.37557615 72.05316636 31.36884069 73.71614647 31.36428642 C76.03779137 31.35523747 78.35891621 31.3328443 80.68041992 31.30639648 C81.70833649 31.30539948 81.70833649 31.30539948 82.75701904 31.30438232 C86.31489184 31.24847971 89.01971273 31.03393732 92 29 C93.10836423 27.11683841 93.10836423 27.11683841 94 25 C94.99 23.68 95.98 22.36 97 21 C73.24 21 49.48 21 25 21 C25 20.67 25 20.34 25 20 C49.75 20 74.5 20 100 20 C100.495 20.99 100.495 20.99 101 22 C101.66 22 102.32 22 103 22 C102.04117114 24.95638899 101.49300902 26.64144799 98.9375 28.5 C96.4081042 30.1197965 96.4081042 30.1197965 96 35 C70.26 35 44.52 35 18 35 C17.67 35.99 17.34 36.98 17 38 C17 37.34 17 36.68 17 36 C16.40832031 35.96261719 15.81664063 35.92523438 15.20703125 35.88671875 C7.12812211 35.2145746 3.35145479 32.72903395 -1.86328125 26.62109375 C-3 25 -3 25 -3 23 C-3.66 23 -4.32 23 -5 23 C-5 21.68 -5 20.36 -5 19 C-5.66 18.67 -6.32 18.34 -7 18 C-5.68 18 -4.36 18 -3 18 C-3.05220703 16.93072266 -3.05220703 16.93072266 -3.10546875 15.83984375 C-3.27931846 9.68887544 -2.90464152 5.44620285 0 0 Z " fill="#CA3F49" transform="translate(29,101)"/>
<path d="M0 0 C6.21540013 0.01003143 12.43080597 0.01388788 18.6462121 0.01834095 C32.69385973 0.02853464 46.7414909 0.04587879 60.78912354 0.06866455 C60.78912354 0.72866455 60.78912354 1.38866455 60.78912354 2.06866455 C55.57709402 2.79545255 50.57105392 3.19277415 45.29730225 3.18891907 C44.23349264 3.1902007 44.23349264 3.1902007 43.14819193 3.19150823 C40.79605404 3.19314192 38.44398911 3.1876766 36.09185791 3.18218994 C34.39611818 3.18190759 32.70037833 3.18206675 31.00463867 3.18263245 C26.41847102 3.18291854 21.83232969 3.17705224 17.24616814 3.17005849 C12.44688934 3.16379361 7.64760989 3.16321867 2.84832764 3.16203308 C-6.23206576 3.158929 -15.31244706 3.15072807 -24.39283514 3.14068359 C-34.7338138 3.12949377 -45.07479304 3.12400478 -55.41577625 3.11898816 C-76.68081639 3.10854467 -97.94584567 3.09096313 -119.21087646 3.06866455 C-119.54087646 2.40866455 -119.87087646 1.74866455 -120.21087646 1.06866455 C-80.1343752 0.25337566 -40.08472816 -0.0681014 0 0 Z " fill="#BA9258" transform="translate(166.21087646484375,137.93133544921875)"/>
<path d="M0 0 C-1.69270833 0.94401042 -3.38541667 1.88802083 -5.078125 2.83203125 C-7.04237849 3.94741915 -7.04237849 3.94741915 -8.6953125 5.50390625 C-12.09608508 7.71152642 -15.69126593 8.29997188 -19.625 9.125 C-24.95422764 10.13528234 -24.95422764 10.13528234 -30 12 C-31.36846741 12.09156105 -32.74129747 12.12193944 -34.11282349 12.12025452 C-34.97381653 12.12162918 -35.83480957 12.12300385 -36.72189331 12.12442017 C-37.66847809 12.12082489 -38.61506287 12.11722961 -39.59033203 12.11352539 C-41.08306641 12.11374443 -41.08306641 12.11374443 -42.60595703 12.1139679 C-45.90659743 12.11326931 -49.20718192 12.10547944 -52.5078125 12.09765625 C-54.79181894 12.09579188 -57.07582578 12.09436807 -59.35983276 12.09336853 C-65.38011778 12.08954487 -71.40037879 12.07971586 -77.4206543 12.06866455 C-83.56038081 12.05844718 -89.70011119 12.05387021 -95.83984375 12.04882812 C-107.89323973 12.03809348 -119.94661787 12.02101885 -132 12 C-132.38218767 10.34385343 -132.71395102 8.67542976 -133 7 C-132.67 6.67 -132.34 6.34 -132 6 C-135.63 5.34 -139.26 4.68 -143 4 C-139.7713031 3.19282577 -137.98398933 2.92963251 -134.8125 3.0625 C-129.9938456 3.13453968 -125.64034248 2.2286486 -121 1 C-124.06117568 3.62386487 -124.73173127 4 -129 4 C-129.33 5.98 -129.66 7.96 -130 10 C-97 10 -64 10 -30 10 C-30 9.34 -30 8.68 -30 8 C-29.00419922 7.81824219 -29.00419922 7.81824219 -27.98828125 7.6328125 C-23.4212182 6.76607061 -19.30688405 5.77342285 -15 4 C-13.68 4 -12.36 4 -11 4 C-11 3.34 -11 2.68 -11 2 C-9.35 2 -7.7 2 -6 2 C-6 1.34 -6 0.68 -6 0 C-2.25 -1.125 -2.25 -1.125 0 0 Z " fill="#732B2C" transform="translate(260,357)"/>
<path d="M0 0 C1.98 0 3.96 0 6 0 C6 0.66 6 1.32 6 2 C6.92876135 1.99723462 7.8575227 1.99446924 8.81442833 1.99162006 C31.43341004 1.92496417 54.05237897 1.87569555 76.67143822 1.84456348 C87.60993317 1.82910734 98.54836316 1.80804175 109.48681641 1.77368164 C119.02291713 1.74374096 128.55897079 1.72441589 138.09511721 1.71773452 C143.14248457 1.71383018 148.18971733 1.70468049 153.23704147 1.68280983 C157.99269769 1.66237094 162.7481645 1.65618113 167.50386047 1.66067696 C169.24445756 1.65985506 170.98506131 1.65393368 172.72562027 1.64238358 C191.84738154 1.52177244 191.84738154 1.52177244 198 5 C198.33 5.99 198.66 6.98 199 8 C201.01508358 8.73323796 201.01508358 8.73323796 203 9 C203.0825 9.61875 203.165 10.2375 203.25 10.875 C203.81258459 13.18437567 203.81258459 13.18437567 206.0625 14.25 C207.0215625 14.62125 207.0215625 14.62125 208 15 C207.67 16.32 207.34 17.64 207 19 C206.34 18.67 205.68 18.34 205 18 C205 16.68 205 15.36 205 14 C204.01 13.67 203.02 13.34 202 13 C201.67 12.01 201.34 11.02 201 10 C198.99983534 8.79117904 198.99983534 8.79117904 197 8 C197 7.34 197 6.68 197 6 C192.62484822 5.16675682 188.46236229 4.85652514 184.01123047 4.81054688 C183.33015417 4.80223374 182.64907787 4.79392061 181.9473629 4.78535557 C179.67066307 4.75870872 177.3939548 4.73873707 175.1171875 4.71875 C173.46986462 4.7008718 171.82254613 4.68258557 170.17523193 4.66392517 C165.68182237 4.61421706 161.18837232 4.57033385 156.69489288 4.52747726 C151.96241283 4.4813636 147.22999045 4.42993078 142.49755859 4.37915039 C133.28895877 4.28125104 124.08031366 4.18854455 114.87164116 4.09776592 C106.96063503 4.0197108 99.04964914 3.93981221 91.13867188 3.85888672 C88.78974406 3.83486922 86.44081625 3.81085189 84.09188843 3.78683472 C82.34543596 3.7689773 82.34543596 3.7689773 80.56370163 3.75075912 C55.37586916 3.49352994 30.18795893 3.24450502 5 3 C5 2.34 5 1.68 5 1 C3.35 1 1.7 1 0 1 C0 0.67 0 0.34 0 0 Z " fill="#210000" transform="translate(131,243)"/>
<path d="M0 0 C1.02054544 3.06163631 0.99811561 5.4074959 0.88305664 8.59838867 C0.51385946 18.02533191 0.51385946 18.02533191 5 26 C9.65435717 30.19409177 13.53872664 31.73793289 19.86303711 31.65942383 C20.99110779 31.67514938 20.99110779 31.67514938 22.14196777 31.69119263 C24.60418817 31.71977541 27.06498832 31.71367148 29.52734375 31.70703125 C31.2437159 31.72015657 32.96007263 31.73546335 34.67640686 31.75285339 C39.17599678 31.79261911 43.67518186 31.80288837 48.17492676 31.80688477 C52.77364314 31.81623216 57.37212323 31.85365573 61.97070312 31.88867188 C70.98045779 31.95316176 79.99003471 31.98647231 89 32 C89 32.33 89 32.66 89 33 C63.92 33 38.84 33 13 33 C13 33.66 13 34.32 13 35 C14.65 35 16.3 35 18 35 C17.67 35.99 17.34 36.98 17 38 C17 37.34 17 36.68 17 36 C16.40832031 35.96261719 15.81664063 35.92523438 15.20703125 35.88671875 C7.12812211 35.2145746 3.35145479 32.72903395 -1.86328125 26.62109375 C-3 25 -3 25 -3 23 C-3.66 23 -4.32 23 -5 23 C-5 21.68 -5 20.36 -5 19 C-5.66 18.67 -6.32 18.34 -7 18 C-5.68 18 -4.36 18 -3 18 C-3.05220703 16.93072266 -3.05220703 16.93072266 -3.10546875 15.83984375 C-3.27931846 9.68887544 -2.90464152 5.44620285 0 0 Z " fill="#B02C37" transform="translate(29,101)"/>
<path d="M0 0 C9.80552475 -0.04638693 19.61102329 -0.08190153 29.41663551 -0.10362434 C33.97001655 -0.11405139 38.52332239 -0.12819091 43.07666016 -0.15087891 C47.47274894 -0.17264573 51.86876549 -0.18457674 56.26490402 -0.18975449 C57.94019075 -0.19344335 59.61547363 -0.20064677 61.29072952 -0.21146011 C63.64133427 -0.22602612 65.99164237 -0.22797582 68.34228516 -0.22705078 C69.37591187 -0.23783661 69.37591187 -0.23783661 70.43041992 -0.24884033 C74.64802879 -0.23093827 78.11668773 0.33057337 82 2 C82.495 2.99 82.495 2.99 83 4 C83.99 4.4640625 83.99 4.4640625 85 4.9375 C87 6 87 6 88 9 C88.99 9.495 88.99 9.495 90 10 C89.67 11.32 89.34 12.64 89 14 C86.66475218 11.74259377 84.81294927 9.7194239 83 7 C82.34 7 81.68 7 81 7 C80.01 5.02 80.01 5.02 79 3 C52.93 2.67 26.86 2.34 0 2 C0 1.34 0 0.68 0 0 Z " fill="#DE6064" transform="translate(246,247)"/>
<path d="M0 0 C24.75 0 49.5 0 75 0 C75.495 0.99 75.495 0.99 76 2 C76.66 2 77.32 2 78 2 C77.04117114 4.95638899 76.49300902 6.64144799 73.9375 8.5 C71.74206097 9.89132862 71.74206097 9.89132862 71.25 12.6875 C71.1675 13.450625 71.085 14.21375 71 15 C69.02 15 67.04 15 65 15 C65.61875 14.236875 66.2375 13.47375 66.875 12.6875 C69.05597052 10.00374191 69.05597052 10.00374191 71 7 C70.505 6.505 70.505 6.505 70 6 C70.66 4.35 71.32 2.7 72 1 C48.24 1 24.48 1 0 1 C0 0.67 0 0.34 0 0 Z " fill="#CB2B38" transform="translate(54,121)"/>
<path d="M0 0 C1.34752602 -0.00043808 1.34752602 -0.00043808 2.72227478 -0.00088501 C5.67115166 0.00050062 8.61977115 0.01602561 11.56860352 0.03173828 C13.62126019 0.03547114 15.67391866 0.03831682 17.72657776 0.04031372 C23.11389129 0.0479287 28.50109599 0.06755883 33.8883667 0.08972168 C39.39179004 0.11022616 44.89523106 0.11932527 50.39868164 0.12939453 C61.18583868 0.15080675 71.97291515 0.18491687 82.76000977 0.22705078 C82.76000977 0.55705078 82.76000977 0.88705078 82.76000977 1.22705078 C81.16601097 1.24251198 81.16601097 1.24251198 79.53981018 1.25828552 C69.54780028 1.35584557 59.55585508 1.45856268 49.56395054 1.56639004 C44.42644508 1.62166387 39.28893397 1.67509085 34.15136719 1.72436523 C29.19764514 1.77194318 24.24399464 1.82428334 19.29035759 1.87999153 C17.39605416 1.90044496 15.50173109 1.91915298 13.60739326 1.9361248 C10.96361276 1.96010294 8.31996879 1.99016608 5.67626953 2.02172852 C4.48944328 2.03036171 4.48944328 2.03036171 3.27864075 2.03916931 C-0.2766972 1.76214993 -0.2766972 1.76214993 -3.23999023 3.22705078 C-4.65222971 3.41087534 -6.07050067 3.54939352 -7.48999023 3.66455078 C-10.349201 3.94095626 -12.3595284 4.27486605 -15.05249023 5.35205078 C-17.59069701 6.36733349 -18.71836681 6.16098538 -21.23999023 5.22705078 C-14.44757276 0.69877247 -7.92917993 -0.06827339 0 0 Z " fill="#C65556" transform="translate(135.239990234375,15.77294921875)"/>
<path d="M0 0 C0.66 0.33 1.32 0.66 2 1 C2.10845031 3.56364483 2.18749744 6.12266279 2.25 8.6875 C2.30027344 9.7693457 2.30027344 9.7693457 2.3515625 10.87304688 C2.42201036 14.73006738 2.30147498 16.53638721 0.140625 19.859375 C-0.91898437 20.91898437 -0.91898437 20.91898437 -2 22 C-2.825 22.845625 -3.65 23.69125 -4.5 24.5625 C-5.325 25.366875 -6.15 26.17125 -7 27 C-7.763125 27.763125 -8.52625 28.52625 -9.3125 29.3125 C-9.869375 29.869375 -10.42625 30.42625 -11 31 C-11.33 30.34 -11.66 29.68 -12 29 C-11.34 29 -10.68 29 -10 29 C-10.33 23.39 -10.66 17.78 -11 12 C-8 15 -8 15 -7.8125 17.6875 C-7.874375 18.450625 -7.93625 19.21375 -8 20 C-3.93518816 18.15570544 -3.93518816 18.15570544 -1 15 C-0.06016733 9.98043913 0.04487313 5.09630526 0 0 Z " fill="#CA323E" transform="translate(336,261)"/>
<path d="M0 0 C0.66 0.33 1.32 0.66 2 1 C-0.60894191 6.32658972 -3.49265105 9.59668087 -8.046875 13.375 C-10.52415463 15.43609665 -12.75299379 17.69226389 -15 20 C-15.825 20.804375 -16.65 21.60875 -17.5 22.4375 C-20.07253019 25.0074975 -20.07253019 25.0074975 -22.5 28 C-24.86584362 30.83901234 -27.3894242 33.3894242 -30 36 C-30.66 36.99 -31.32 37.98 -32 39 C-32.66 39 -33.32 39 -34 39 C-32.59168351 34.51899299 -30.41176733 32.17373705 -27 29 C-25.7625 27.7625 -25.7625 27.7625 -24.5 26.5 C-17 19 -17 19 -14.3125 16.375 C-11.88724324 14.02914245 -11.88724324 14.02914245 -10 11 C-9.34 11 -8.68 11 -8 11 C-7.773125 10.278125 -7.54625 9.55625 -7.3125 8.8125 C-5.74730392 5.45850839 -3.70307284 3.49514416 -1 1 C-0.67 0.67 -0.34 0.34 0 0 Z " fill="#290000" transform="translate(227,263)"/>
<path d="M0 0 C0.66 0.33 1.32 0.66 2 1 C0.71937515 2.7074998 -0.61767557 4.37373596 -2 6 C-2.66 6 -3.32 6 -4 6 C-4.268125 6.639375 -4.53625 7.27875 -4.8125 7.9375 C-6 10 -6 10 -9 11 C-9.268125 11.70125 -9.53625 12.4025 -9.8125 13.125 C-12.46409041 19.54463993 -17.92141307 23.94636755 -23.10546875 28.3671875 C-26.53085258 31.31937397 -29.4910885 34.23663276 -32 38 C-32.66 38 -33.32 38 -34 38 C-32.43387807 34.15588253 -29.97905879 31.84049791 -27 29 C-24.32820474 26.39033952 -22.07429779 24.11144669 -20 21 C-19.34 21 -18.68 21 -18 21 C-17.773125 20.278125 -17.54625 19.55625 -17.3125 18.8125 C-15.72668125 15.41431697 -13.73876676 13.54769001 -11 11 C-9.7625 9.7625 -9.7625 9.7625 -8.5 8.5 C-5.66666667 5.66666667 -2.83333333 2.83333333 0 0 Z " fill="#2B0000" transform="translate(166,85)"/>
<path d="M0 0 C0.66 0 1.32 0 2 0 C0.6068597 3.25301796 -0.94960155 5.03386216 -3.6875 7.25 C-7.29204978 10.29297137 -10.34340681 13.54768516 -13.3984375 17.1328125 C-15.49216906 19.5737971 -17.62573001 21.82923886 -20 24 C-20.66 24 -21.32 24 -22 24 C-22.226875 24.721875 -22.45375 25.44375 -22.6875 26.1875 C-24.27279974 29.58457087 -26.15923323 31.5749552 -29 34 C-29.99 34 -30.98 34 -32 34 C-30.7260411 31.96166576 -29.38938077 29.96147874 -28 28 C-27.34 28 -26.68 28 -26 28 C-25.731875 27.360625 -25.46375 26.72125 -25.1875 26.0625 C-24 24 -24 24 -21 23 C-20.67 22.34 -20.34 21.68 -20 21 C-19 19 -19 19 -16 18 C-15.67 17.34 -15.34 16.68 -15 16 C-14 14 -14 14 -11 13 C-10.67 12.34 -10.34 11.68 -10 11 C-9 9 -9 9 -6 8 C-5.855625 7.360625 -5.71125 6.72125 -5.5625 6.0625 C-5.376875 5.381875 -5.19125 4.70125 -5 4 C-3 2.875 -3 2.875 -1 2 C-0.67 1.34 -0.34 0.68 0 0 Z " fill="#2E0000" transform="translate(225,24)"/>
<path d="M0 0 C0 0.66 0 1.32 0 2 C-2.64738916 3.4606285 -3.89448334 4 -7 4 C-7 4.66 -7 5.32 -7 6 C-7.66 6 -8.32 6 -9 6 C-8.85851011 7.6045556 -8.71164314 9.20863767 -8.5625 10.8125 C-8.48128906 11.70582031 -8.40007812 12.59914063 -8.31640625 13.51953125 C-8.06510233 16.12743559 -8.06510233 16.12743559 -7 19 C-6.360625 19.268125 -5.72125 19.53625 -5.0625 19.8125 C-3 21 -3 21 -1.75 24.125 C-1.5025 25.07375 -1.255 26.0225 -1 27 C-1.66 26.67 -2.32 26.34 -3 26 C-3 25.34 -3 24.68 -3 24 C-3.66 24 -4.32 24 -5 24 C-11.77588467 17.9017038 -11.77588467 17.9017038 -12.1484375 13.078125 C-12.20827019 9.79929353 -12.04087468 7.12262405 -11 4 C-9.2578125 2.83203125 -9.2578125 2.83203125 -7.125 1.8125 C-6.42632812 1.46832031 -5.72765625 1.12414062 -5.0078125 0.76953125 C-3 0 -3 0 0 0 Z " fill="#85523A" transform="translate(80,293)"/>
<path d="M0 0 C0.66 0.33 1.32 0.66 2 1 C-1.75 5.875 -1.75 5.875 -4 7 C-4.33 7.99 -4.66 8.98 -5 10 C-5.61875 10.28875 -6.2375 10.5775 -6.875 10.875 C-9.66793631 12.35361334 -10.44375686 14.31194367 -12 17 C-12.66 17 -13.32 17 -14 17 C-14.268125 17.639375 -14.53625 18.27875 -14.8125 18.9375 C-16 21 -16 21 -19 22 C-19.68486725 23.32407669 -20.34870203 24.65909241 -21 26 C-23 28.25 -23 28.25 -25 30 C-25.66 30 -26.32 30 -27 30 C-25.5355142 26.58286646 -23.65112244 24.57748015 -21 22 C-20.05578682 20.88062843 -19.11887878 19.75507292 -18.1875 18.625 C-16.12749478 16.18715462 -14.02613978 14.08975515 -11.5625 12.0625 C-7.57004544 8.77250404 -4.32982487 4.94123339 -1 1 C-0.67 0.67 -0.34 0.34 0 0 Z " fill="#2C0000" transform="translate(166,328)"/>
<path d="M0 0 C0 0.33 0 0.66 0 1 C-1.11117187 1.32613281 -2.22234375 1.65226562 -3.3671875 1.98828125 C-4.86979721 2.42966863 -6.37240098 2.87107622 -7.875 3.3125 C-8.65133789 3.5403418 -9.42767578 3.76818359 -10.22753906 4.00292969 C-15.13527745 5.44517878 -20.03501457 6.91011242 -24.921875 8.421875 C-27.26258778 9.07305074 -29.61331313 9.54936682 -32 10 C-32.33 9.34 -32.66 8.68 -33 8 C-31.68 8 -30.36 8 -29 8 C-29 7.34 -29 6.68 -29 6 C-28.18015625 5.80664062 -27.3603125 5.61328125 -26.515625 5.4140625 C-25.43796875 5.15367188 -24.3603125 4.89328125 -23.25 4.625 C-22.18265625 4.36976562 -21.1153125 4.11453125 -20.015625 3.8515625 C-17.42714227 3.12061789 -15.36255217 2.24072762 -13 1 C-8.62734659 0.02829924 -4.47016195 -0.08940324 0 0 Z " fill="#965A3D" transform="translate(187,119)"/>
<path d="M0 0 C0.66 0 1.32 0 2 0 C3.63895993 7.58018966 4.12416293 15.77537323 1 23 C-0.32 22.67 -1.64 22.34 -3 22 C-3 20.35 -3 18.7 -3 17 C-2.67 17.99 -2.34 18.98 -2 20 C-1.34 20 -0.68 20 0 20 C0 13.4 0 6.8 0 0 Z " fill="#82623E" transform="translate(342,241)"/>
<path d="M0 0 C0.66 0.33 1.32 0.66 2 1 C2.10845031 3.56364483 2.18749744 6.12266279 2.25 8.6875 C2.28351563 9.40873047 2.31703125 10.12996094 2.3515625 10.87304688 C2.42147663 14.7008457 2.30289249 16.53077552 0.171875 19.83203125 C-0.54484375 20.54746094 -1.2615625 21.26289063 -2 22 C-2.86625 22.8971875 -2.86625 22.8971875 -3.75 23.8125 C-4.1625 24.204375 -4.575 24.59625 -5 25 C-4.71872579 23.51882199 -4.42466268 22.04006751 -4.125 20.5625 C-3.96257812 19.73878906 -3.80015625 18.91507812 -3.6328125 18.06640625 C-3.42398437 17.38449219 -3.21515625 16.70257813 -3 16 C-2.34 15.67 -1.68 15.34 -1 15 C-0.68758629 12.45058627 -0.48696579 9.99638487 -0.375 7.4375 C-0.33632813 6.72658203 -0.29765625 6.01566406 -0.2578125 5.28320312 C-0.16328217 3.52257575 -0.08054183 1.76132272 0 0 Z " fill="#6E262B" transform="translate(336,261)"/>
<path d="M0 0 C-1.0725 0.598125 -2.145 1.19625 -3.25 1.8125 C-5.33052962 2.98772931 -7.10131571 4.08497446 -8.9375 5.625 C-11.99778544 7.66519029 -15.35538192 8.57289632 -19 9 C-21.25 8.546875 -21.25 8.546875 -23 8 C-21.75539217 7.32332002 -20.50403104 6.65905281 -19.25 6 C-18.20585937 5.443125 -18.20585937 5.443125 -17.140625 4.875 C-15 4 -15 4 -11 4 C-11 3.34 -11 2.68 -11 2 C-9.35 2 -7.7 2 -6 2 C-6 1.34 -6 0.68 -6 0 C-2.25 -1.125 -2.25 -1.125 0 0 Z " fill="#8C3939" transform="translate(260,357)"/>
<path d="M0 0 C0.33 0 0.66 0 1 0 C1.04898437 0.85722656 1.09796875 1.71445313 1.1484375 2.59765625 C1.50351628 13.62035992 1.50351628 13.62035992 6.625 22.9375 C7.800625 23.9584375 7.800625 23.9584375 9 25 C6 25 6 25 4.39453125 23.5390625 C3.87246094 22.90742188 3.35039062 22.27578125 2.8125 21.625 C2.28269531 20.99851563 1.75289062 20.37203125 1.20703125 19.7265625 C0 18 0 18 0 16 C-0.66 16 -1.32 16 -2 16 C-2 14.68 -2 13.36 -2 12 C-2.66 11.67 -3.32 11.34 -4 11 C-2.68 11 -1.36 11 0 11 C0 7.37 0 3.74 0 0 Z " fill="#1E0000" transform="translate(26,108)"/>
<path d="M0 0 C-3.20360945 1.69377437 -6.45809521 2.98332363 -9.875 4.1875 C-10.88304687 4.55230469 -11.89109375 4.91710937 -12.9296875 5.29296875 C-16.32349767 6.07449501 -18.63546865 5.78840511 -22 5 C-22 4.67 -22 4.34 -22 4 C-21.27554688 3.80664062 -20.55109375 3.61328125 -19.8046875 3.4140625 C-18.83789062 3.15367187 -17.87109375 2.89328125 -16.875 2.625 C-15.86953125 2.35429687 -14.8640625 2.08359375 -13.828125 1.8046875 C-10.8826143 1.00604846 -10.8826143 1.00604846 -7.625 -0.25 C-4.67039756 -1.09417213 -2.91923555 -0.85859869 0 0 Z " fill="#8A5236" transform="translate(202,258)"/>
<path d="M0 0 C0.66 0.33 1.32 0.66 2 1 C-1.90510489 6.50719921 -6.09717644 11.35827355 -11 16 C-11.99 15.67 -12.98 15.34 -14 15 C-11.04191217 10.93262923 -7.64138562 7.84809895 -3.8046875 4.6484375 C-1.78227744 2.93367669 -1.78227744 2.93367669 0 0 Z " fill="#EF955E" transform="translate(178,75)"/>
<path d="M0 0 C0.66 0.33 1.32 0.66 2 1 C-0.62801852 7.45059091 -6.7973243 11.6369492 -12 16 C-12.66 15.67 -13.32 15.34 -14 15 C-12.38405168 12.95880212 -10.7143618 10.95927063 -9 9 C-8.34 9 -7.68 9 -7 9 C-6.34 7.68 -5.68 6.36 -5 5 C-4.34 5 -3.68 5 -3 5 C-3 4.34 -3 3.68 -3 3 C-2.34 3 -1.68 3 -1 3 C-0.67 2.01 -0.34 1.02 0 0 Z " fill="#903A3A" transform="translate(60,69)"/>
<path d="M0 0 C0 0.66 0 1.32 0 2 C-6.95592374 5.13698522 -12.37256022 6.12927864 -20 6 C-17.35578277 4.23718851 -15.46970304 3.38285547 -12.5 2.4375 C-11.7265625 2.18871094 -10.953125 1.93992188 -10.15625 1.68359375 C-9.4446875 1.45800781 -8.733125 1.23242188 -8 1 C-5.07175348 0.02391783 -3.04386724 -0.08226668 0 0 Z " fill="#7F4B33" transform="translate(234,247)"/>
<path d="M0 0 C0.66 0 1.32 0 2 0 C1.04117114 2.95638899 0.49300902 4.64144799 -2.0625 6.5 C-4.25793903 7.89132862 -4.25793903 7.89132862 -4.75 10.6875 C-4.8325 11.450625 -4.915 12.21375 -5 13 C-6.98 13 -8.96 13 -11 13 C-10.38125 12.236875 -9.7625 11.47375 -9.125 10.6875 C-6.94402948 8.00374191 -6.94402948 8.00374191 -5 5 C-4.34 5 -3.68 5 -3 5 C-2.690625 4.360625 -2.38125 3.72125 -2.0625 3.0625 C-1 1 -1 1 0 0 Z " fill="#1F0000" transform="translate(130,123)"/>
<path d="M0 0 C0.33 0 0.66 0 1 0 C1.06058594 0.61488281 1.12117188 1.22976563 1.18359375 1.86328125 C1.26738281 2.67152344 1.35117188 3.47976563 1.4375 4.3125 C1.51871094 5.11300781 1.59992188 5.91351563 1.68359375 6.73828125 C1.95265693 9.16087179 1.95265693 9.16087179 3 12 C3.639375 12.268125 4.27875 12.53625 4.9375 12.8125 C7 14 7 14 8.25 17.125 C8.4975 18.07375 8.745 19.0225 9 20 C8.34 19.67 7.68 19.34 7 19 C7 18.34 7 17.68 7 17 C6.34 17 5.68 17 5 17 C0.51094891 13.05839416 0.51094891 13.05839416 -0.875 10.1875 C-1.07326766 6.71781586 -0.51512516 3.43416771 0 0 Z " fill="#B77046" transform="translate(70,300)"/>
<path d="M0 0 C0 0.33 0 0.66 0 1 C-1.02480469 1.19335938 -2.04960937 1.38671875 -3.10546875 1.5859375 C-4.46619601 1.84869863 -5.82687033 2.11173398 -7.1875 2.375 C-8.19780273 2.56449219 -8.19780273 2.56449219 -9.22851562 2.7578125 C-13.0141239 3.49646777 -16.47612869 4.42623223 -20 6 C-20.33 5.34 -20.66 4.68 -21 4 C-19.68 4 -18.36 4 -17 4 C-17 3.34 -17 2.68 -17 2 C-15.10787298 1.46585888 -13.21108364 0.94821671 -11.3125 0.4375 C-10.25675781 0.14746094 -9.20101563 -0.14257812 -8.11328125 -0.44140625 C-4.99304618 -1.00124767 -3.02306766 -0.84690764 0 0 Z " fill="#985B3C" transform="translate(275,93)"/>
<path d="M0 0 C-0.93972656 0.18175781 -0.93972656 0.18175781 -1.8984375 0.3671875 C-2.71570313 0.53476563 -3.53296875 0.70234375 -4.375 0.875 C-5.18710938 1.03742188 -5.99921875 1.19984375 -6.8359375 1.3671875 C-9.18673923 1.86658932 -9.18673923 1.86658932 -11 4 C-13.1640625 4.4140625 -13.1640625 4.4140625 -15.625 4.625 C-16.44226563 4.69976562 -17.25953125 4.77453125 -18.1015625 4.8515625 C-18.72804687 4.90054688 -19.35453125 4.94953125 -20 5 C-20 4.34 -20 3.68 -20 3 C-17.36 2.67 -14.72 2.34 -12 2 C-12 1.34 -12 0.68 -12 0 C-3.96428571 -2.41071429 -3.96428571 -2.41071429 0 0 Z " fill="#955A3D" transform="translate(220,110)"/>
<path d="M0 0 C0.99 0.33 1.98 0.66 3 1 C1.8553125 2.0828125 1.8553125 2.0828125 0.6875 3.1875 C-2.044086 5.83926978 -2.044086 5.83926978 -3.6875 8.8125 C-4.120625 9.534375 -4.55375 10.25625 -5 11 C-5.66 11 -6.32 11 -7 11 C-7.33 11.66 -7.66 12.32 -8 13 C-8 11.68 -8 10.36 -8 9 C-7.01 9 -6.02 9 -5 9 C-5 7.68 -5 6.36 -5 5 C-4.34 5 -3.68 5 -3 5 C-3 4.34 -3 3.68 -3 3 C-2.34 3 -1.68 3 -1 3 C-0.67 2.01 -0.34 1.02 0 0 Z " fill="#91393A" transform="translate(290,324)"/>
<path d="M0 0 C0.66 0.33 1.32 0.66 2 1 C1.01 2.98 0.02 4.96 -1 7 C-1.66 7 -2.32 7 -3 7 C-3.33 8.32 -3.66 9.64 -4 11 C-5.98 11.33 -7.96 11.66 -10 12 C-8.10270891 9.49286534 -6.41851201 7.30772942 -3.875 5.4375 C-1.76888609 3.82281267 -1.00406019 2.42647879 0 0 Z " fill="#883437" transform="translate(40,89)"/>
<path d="M0 0 C-1.40372802 1.20276695 -2.82352097 2.38680519 -4.25 3.5625 C-5.43335937 4.55443359 -5.43335937 4.55443359 -6.640625 5.56640625 C-9 7 -9 7 -11.296875 6.71484375 C-11.85890625 6.47894531 -12.4209375 6.24304687 -13 6 C-12.01 5.67 -11.02 5.34 -10 5 C-9.67 4.01 -9.34 3.02 -9 2 C-5.58420831 -0.58492344 -4.05166877 -1.27856499 0 0 Z " fill="#A24242" transform="translate(108,27)"/>
<path d="M0 0 C3.66172475 0.62678171 6.8818995 1.64451846 10.3125 3.0625 C11.19550781 3.42472656 12.07851562 3.78695312 12.98828125 4.16015625 C13.65214844 4.43730469 14.31601563 4.71445313 15 5 C15 5.33 15 5.66 15 6 C8.99666876 6.6319296 4.36595205 4.37544123 -1 2 C-0.67 1.34 -0.34 0.68 0 0 Z " fill="#86663E" transform="translate(237,141)"/>
<path d="M0 0 C0.66 0 1.32 0 2 0 C1.67 1.65 1.34 3.3 1 5 C0.34 5 -0.32 5 -1 5 C-1.33 6.32 -1.66 7.64 -2 9 C-3.65 9.33 -5.3 9.66 -7 10 C-6.67 9.34 -6.34 8.68 -6 8 C-5.34 8 -4.68 8 -4 8 C-3.8453125 7.13375 -3.8453125 7.13375 -3.6875 6.25 C-2.89103535 3.64338842 -1.80934723 2.0264689 0 0 Z " fill="#8D3939" transform="translate(92,34)"/>
<path d="M0 0 C0.66 0 1.32 0 2 0 C0.60865582 4.42700422 -1.47884142 6.99413292 -5 10 C-5.99 10 -6.98 10 -8 10 C-6.625 7.5 -6.625 7.5 -5 5 C-4.34 5 -3.68 5 -3 5 C-2.690625 4.360625 -2.38125 3.72125 -2.0625 3.0625 C-1 1 -1 1 0 0 Z " fill="#280000" transform="translate(176,317)"/>
<path d="M0 0 C0.66 0.33 1.32 0.66 2 1 C0.625 3.5 0.625 3.5 -1 6 C-1.66 6 -2.32 6 -3 6 C-3.268125 6.639375 -3.53625 7.27875 -3.8125 7.9375 C-5 10 -5 10 -8 11 C-6.60366572 6.55711819 -4.39598172 4.13475236 -1 1 C-0.67 0.67 -0.34 0.34 0 0 Z " fill="#280000" transform="translate(181,69)"/>
<path d="M0 0 C0.99 0 1.98 0 3 0 C1.6062718 4.43458973 -0.60582235 6.87378374 -4 10 C-4.66 9.67 -5.32 9.34 -6 9 C-4.7260411 6.96166576 -3.38938077 4.96147874 -2 3 C-1.34 3 -0.68 3 0 3 C0 2.01 0 1.02 0 0 Z " fill="#8C3838" transform="translate(68,59)"/>
<path d="M0 0 C0.66 0.33 1.32 0.66 2 1 C0.90344712 2.31886772 -0.20253423 3.62990057 -1.3125 4.9375 C-1.92738281 5.66839844 -2.54226562 6.39929688 -3.17578125 7.15234375 C-5 9 -5 9 -8 10 C-7.1875 8.0625 -7.1875 8.0625 -6 6 C-5.01 5.67 -4.02 5.34 -3 5 C-1.8499169 3.03327085 -1.8499169 3.03327085 -1 1 C-0.67 0.67 -0.34 0.34 0 0 Z " fill="#E76160" transform="translate(223,271)"/>
<path d="M0 0 C-1.32 0.33 -2.64 0.66 -4 1 C-4 1.66 -4 2.32 -4 3 C-5.8125 3.625 -5.8125 3.625 -8 4 C-8.99 3.34 -9.98 2.68 -11 2 C-3.57142857 -1.57142857 -3.57142857 -1.57142857 0 0 Z " fill="#925538" transform="translate(168,268)"/>
<path d="M0 0 C1.65 0 3.3 0 5 0 C5.25 2.8125 5.25 2.8125 5 6 C3 7.875 3 7.875 1 9 C1.57584432 6.61435923 2.22227595 4.33317216 3 2 C2.01 2 1.02 2 0 2 C0 1.34 0 0.68 0 0 Z " fill="#E79768" transform="translate(234,247)"/>
<path d="M0 0 C0.66 0.33 1.32 0.66 2 1 C-1.75 6.875 -1.75 6.875 -4 8 C-3.67 5.69 -3.34 3.38 -3 1 C-2.01 0.67 -1.02 0.34 0 0 Z " fill="#E64E59" transform="translate(33,100)"/>
<path d="M0 0 C0.33 0.99 0.66 1.98 1 3 C2.65 2.01 4.3 1.02 6 0 C5.67 1.98 5.34 3.96 5 6 C3.35 6 1.7 6 0 6 C0 4.02 0 2.04 0 0 Z " fill="#B11D2B" transform="translate(327,278)"/>
<path d="M0 0 C0.33 0.99 0.66 1.98 1 3 C1.66 3 2.32 3 3 3 C3 2.01 3 1.02 3 0 C3.66 0 4.32 0 5 0 C5 1.65 5 3.3 5 5 C3.0625 5.5625 3.0625 5.5625 1 6 C0 5 0 5 -0.0625 2.4375 C-0.041875 1.633125 -0.02125 0.82875 0 0 Z " fill="#90724D" transform="translate(339,258)"/>
<path d="M0 0 C2.4375 0.8125 2.4375 0.8125 5 2 C5.33 2.99 5.66 3.98 6 5 C6.66 5.33 7.32 5.66 8 6 C7.67 7.32 7.34 8.64 7 10 C4.47411298 7.63707344 3.11179163 6.33537489 2 3 C1.34 2.67 0.68 2.34 0 2 C0 1.34 0 0.68 0 0 Z " fill="#CE555B" transform="translate(328,251)"/>
<path d="M0 0 C3.96 0 7.92 0 12 0 C12 0.33 12 0.66 12 1 C10.01432292 1.48828125 8.02864583 1.9765625 6.04296875 2.46484375 C4.34316798 2.91010705 2.66698046 3.44433985 1 4 C0.67 2.68 0.34 1.36 0 0 Z " fill="#8E5234" transform="translate(142,129)"/>
<path d="M0 0 C0 0.33 0 0.66 0 1 C-1.7015625 1.2165625 -1.7015625 1.2165625 -3.4375 1.4375 C-6.80777201 1.61171478 -6.80777201 1.61171478 -8 3 C-9.99958364 3.04080783 -12.00045254 3.04254356 -14 3 C-12.66666667 2.33333333 -11.33333333 1.66666667 -10 1 C-9.071875 0.4121875 -9.071875 0.4121875 -8.125 -0.1875 C-5.17865786 -1.31404258 -3.02096204 -0.68658228 0 0 Z " fill="#915638" transform="translate(150,274)"/>
<path d="M0 0 C1.32 0 2.64 0 4 0 C4 0.66 4 1.32 4 2 C4.66 2 5.32 2 6 2 C7.625 4 7.625 4 9 6 C8.01 6.495 8.01 6.495 7 7 C5.83040013 6.02433888 4.66438823 5.044375 3.5 4.0625 C2.8503125 3.51722656 2.200625 2.97195312 1.53125 2.41015625 C1.0259375 1.94480469 0.520625 1.47945312 0 1 C0 0.67 0 0.34 0 0 Z " fill="#7E603C" transform="translate(91,220)"/>
<path d="M0 0 C0.66 0 1.32 0 2 0 C1.52794881 4.24846075 -0.88877522 6.26819288 -4 9 C-4.66 9 -5.32 9 -6 9 C-4.4722133 5.56247993 -2.49818944 2.81046312 0 0 Z " fill="#6C292A" transform="translate(79,48)"/>
<path d="M0 0 C2.3125 0.1875 2.3125 0.1875 5 1 C6.875 3.4375 6.875 3.4375 8 6 C7.67 6.66 7.34 7.32 7 8 C6.67 7.01 6.34 6.02 6 5 C5.34 5 4.68 5 4 5 C2.61767557 3.37373596 1.28062485 1.7074998 0 0 Z " fill="#7A4831" transform="translate(71,312)"/>
<path d="M0 0 C2.31 0 4.62 0 7 0 C5.66666667 0.66666667 4.33333333 1.33333333 3 2 C2.319375 2.37125 1.63875 2.7425 0.9375 3.125 C-1 4 -1 4 -4 4 C-4 3.34 -4 2.68 -4 2 C-2.68 2 -1.36 2 0 2 C0 1.34 0 0.68 0 0 Z " fill="#8A4F35" transform="translate(192,115)"/>
<path d="M0 0 C0.66 0 1.32 0 2 0 C0.52307692 4.67692308 0.52307692 4.67692308 -2.125 6.3125 C-3.053125 6.6528125 -3.053125 6.6528125 -4 7 C-4 6.01 -4 5.02 -4 4 C-3.34 4 -2.68 4 -2 4 C-2 3.34 -2 2.68 -2 2 C-1.34 2 -0.68 2 0 2 C0 1.34 0 0.68 0 0 Z " fill="#983C3C" transform="translate(297,317)"/>
<path d="M0 0 C2.475 0.99 2.475 0.99 5 2 C5 2.66 5 3.32 5 4 C6.32 4.33 7.64 4.66 9 5 C6 6 6 6 3.9375 5.3125 C1.68616685 3.78740335 0.99766109 2.49415272 0 0 Z " fill="#B93D44" transform="translate(32,129)"/>
<path d="M0 0 C0.66 0 1.32 0 2 0 C2.1875 2.375 2.1875 2.375 2 5 C1.01 5.66 0.02 6.32 -1 7 C-1.99 6.67 -2.98 6.34 -4 6 C-3.34 6 -2.68 6 -2 6 C-2 5.34 -2 4.68 -2 4 C-1.34 4 -0.68 4 0 4 C0 2.68 0 1.36 0 0 Z " fill="#6F2A2A" transform="translate(234,16)"/>
<path d="M0 0 C1.32 0 2.64 0 4 0 C5.75 2.5 5.75 2.5 7 5 C6.01 5 5.02 5 4 5 C1.8125 2.5 1.8125 2.5 0 0 Z " fill="#895034" transform="translate(106,349)"/>
<path d="M0 0 C0 0.66 0 1.32 0 2 C-3.13498292 3.85776765 -5.37471432 4.20140476 -9 4 C-3.7826087 0 -3.7826087 0 0 0 Z " fill="#794730" transform="translate(80,293)"/>
<path d="M0 0 C1.32 0.66 2.64 1.32 4 2 C1.03 4.475 1.03 4.475 -2 7 C-2.33 6.34 -2.66 5.68 -3 5 C-2.34 5 -1.68 5 -1 5 C-0.67 3.35 -0.34 1.7 0 0 Z " fill="#8A3D3E" transform="translate(327,285)"/>
<path d="M0 0 C1.32 0 2.64 0 4 0 C5.75 2.5 5.75 2.5 7 5 C6.01 5 5.02 5 4 5 C1.8125 2.5 1.8125 2.5 0 0 Z " fill="#86653D" transform="translate(45,171)"/>
</svg>
